<svg id="Layer_1" data-name="Layer 1" xmlns="http://www.w3.org/2000/svg" viewBox="0 0 425.197 425.205">
  <defs>
    <style>
      .cls-1 {
        fill: #1a1818;
      }
    </style>
  </defs>
  <title>477f8ee0-39c4-48ad-8151-661e4d6c6855</title>
  <path class="cls-1" d="M212.594,0C95.172,0,0,95.187,0,212.6s95.172,212.6,212.594,212.6,212.6-95.185,212.6-212.6S330.025,0,212.594,0Zm0,388.23A175.645,175.645,0,0,1,36.954,212.6c0-96.98,78.641-175.621,175.641-175.621a175.628,175.628,0,0,1,0,351.255Zm91.16-221.8A69.442,69.442,0,0,0,234.326,97H190.259l23.78,34.873h20.287a34.491,34.491,0,0,1,5.635,68.53l-46.728-68.53L169.453,97H125.887V311.824h34.9V142.673l39.75,58.3h-21.6v34.9h45.368L276.838,312.9h39.835l-56.059-82.226A69.413,69.413,0,0,0,303.755,166.429Z"/>
</svg>
