<svg id="Layer_1" data-name="Layer 1" xmlns="http://www.w3.org/2000/svg" viewBox="0 0 260 260">
  <defs>
    <style>
      .cls-1 {
        fill: #1a1818;
      }
    </style>
  </defs>
  <title>d5a5c266-36f4-4604-a70b-50cca116c087</title>
  <g>
    <path class="cls-1" d="M163.819,66.816H96.144a4.366,4.366,0,0,0-4.234,4.271V183.979a4.358,4.358,0,0,0,4.234,4.234h67.712a4.358,4.358,0,0,0,4.234-4.234V71.088h-0.037A4.392,4.392,0,0,0,163.819,66.816Z"/>
    <path class="cls-1" d="M129.982,194.546a10.567,10.567,0,1,0,10.6,10.567A10.615,10.615,0,0,0,129.982,194.546Z"/>
    <path class="cls-1" d="M119.377,54.113h21.172a2.075,2.075,0,0,0,2.1-2.1,2.044,2.044,0,0,0-2.062-2.1H119.377A2.1,2.1,0,1,0,119.377,54.113Z"/>
    <path class="cls-1" d="M130,0A130,130,0,1,0,260,130,130,130,0,0,0,130,0Zm50.794,205.113h-0.037a17.059,17.059,0,0,1-16.937,16.937H96.144a17.059,17.059,0,0,1-16.937-16.937V54.887A17.035,17.035,0,0,1,96.144,37.949h67.712a17.059,17.059,0,0,1,16.937,16.937V205.113Z"/>
  </g>
</svg>
