<svg id="Layer_1" data-name="Layer 1" xmlns="http://www.w3.org/2000/svg" viewBox="0 0 260 260">
  <defs>
    <style>
      .cls-1 {
        fill: #1a1818;
      }
    </style>
  </defs>
  <title>39c5843b-4fe5-4286-bc76-c7b4d87f6db6</title>
  <path class="cls-1" d="M130,0A130,130,0,1,0,260,130,130,130,0,0,0,130,0ZM57.824,80.5H202.268c7.651,0,3.718,7.036-.461,9.279s-61.883,33.246-64.034,34.383a16.9,16.9,0,0,1-7.743,1.721,16.393,16.393,0,0,1-7.712-1.721c-2.182-1.168-59.885-32.14-64.034-34.383C54.106,87.536,50.142,80.5,57.824,80.5Zm148.992,90.827c0,3.534-4.763,8.173-8.45,8.173H61.665c-3.718,0-8.48-4.64-8.48-8.173v-62.62c0-1.567,0-3.626,3.318-1.874,4.732,2.489,62.866,32.908,65.785,34.383A14.61,14.61,0,0,0,130,142.936a14.654,14.654,0,0,0,7.743-1.721c2.919-1.506,61.053-31.894,65.785-34.383,3.349-1.721,3.288.307,3.288,1.874v62.62Z"/>
</svg>
