<?xml version="1.0" encoding="utf-8"?>
<!-- Generator: Adobe Illustrator 25.4.1, SVG Export Plug-In . SVG Version: 6.00 Build 0)  -->
<svg version="1.1" id="Layer_1" xmlns="http://www.w3.org/2000/svg" xmlns:xlink="http://www.w3.org/1999/xlink" x="0px" y="0px"
	 viewBox="0 0 1143.3 389.3" style="enable-background:new 0 0 1143.3 389.3;" xml:space="preserve">
<style type="text/css">
	.st0{fill:#ECEDED;}
</style>
<g>
	<path class="st0" d="M193.7,200.1c2.3-3.8,4.7-7.6,7.2-11.3c0.1-0.1,0.1-0.2,0.2-0.3c0.6-0.9,1.2-1.8,1.8-2.7
		c1.5-2.2,3-4.4,4.6-6.6c5.4-7.6,11.1-15.1,17.1-22.4c5.8-7.1,11.9-14,18.2-20.7c2.9-3.1,5.9-6.2,8.9-9.2c1-1,1.9-1.9,2.9-2.8
		c2.2-2.2,0.1-0.1-0.6,0.5c1.7-1.9,3.8-3.6,5.7-5.3c13.8-12.8,28.4-24.6,43.7-35.4c4.2-3,8.5-5.8,12.8-8.7c0.2-0.1,0.4-0.2,0.6-0.4
		c-4.2,2.7-3.5,2.2,2.3-1.5c0,0,0.1-0.1,0.1-0.1c2.1-1.3,4.2-2.6,6.3-3.9c9.2-5.6,18.4-11,27.7-16.4c4.4-2.6,8.6-5.8,10.9-10.5
		c1.7-3.4,2.6-8.6,0.5-12.2c-5.4-9.1-16.9-7.6-25.1-4C320,34.8,302,46.2,284.9,58.5c-15.8,11.3-30.7,23.6-44.8,37
		c-14.1,13.4-27.4,27.6-39.7,42.6c0.1-23.5-4.4-48.3-25.8-59.5c-16.4-8.7-36.9-4.9-52.9,2.7c-14.3,6.9-27.2,17.6-38.7,28.6
		c-22.8,21.8-41.9,47.8-53.5,77.2C15.6,222.2,11,261.6,21,298.4c4.1,15.2,27.6,7.5,30.1-5.3c0.7-3.7,0.2-6.9-0.2-10.5
		c-0.4-2.8,0.3-5.5,0.7-8.3c0.9-6.4,1.7-12.7,2.6-19.1c1.8-12.5,3.7-25,5.2-37.6c1.2-9.9,1.8-19.8,2.6-29.8c0.3-0.8,0.7-1.5,1-2.3
		c2.8-6.3,5.9-12.4,9.4-18.4c1.6-2.8,3.4-5.5,5-8.2c0,0,0-0.1,0.1-0.1c0.4-0.5,0.7-1.1,1.1-1.6c1-1.5,2.1-3,3.2-4.5
		c4.1-5.6,8.4-10.9,13-16c2.1-2.4,4.4-4.7,6.6-7c0.4-0.4,2.3-2.2,2.7-2.6c0,0,0,0,0,0c0.8-0.8,1.7-1.6,2.5-2.3
		c4.9-4.5,10.1-8.8,15.5-12.8c1.5-1.1,3.1-2.2,4.6-3.3c0.4-0.3,2.4-1.4,0.4-0.3c-2.2,1.2,0.5-0.3,1-0.6c1.4-0.8,2.9-1.6,4.4-2.4
		c0.6-0.3,1.3-0.6,1.9-0.9c0.6-0.3,1.3-0.6,1.9-0.9c-0.6,0.2-1.2,0.5-1.9,0.7c1.2-0.8,3.2-1.1,4.7-1.4c0.1,0,0.6-0.2,1-0.3
		c0.1,0,0.2,0,0.3,0c1.4-0.1,2.9-0.2,4.3-0.2c0,0,0,0,0,0c0.8,0.2,1.7,0.2,2.6,0.4c0.2,0,1,0.2,1.5,0.3c0.2,0.1,0.3,0.1,0.4,0.1
		c1.3,0.5,2.7,1.1,3.9,1.8c-0.2-0.1,1.2,0.9,1.7,1.3c0.6,0.5,1.2,1.1,1.7,1.6c0.1,0.2,0.9,1.1,1.3,1.5c0.1,0.1,0.2,0.2,0.2,0.2
		c0.4,0.7,0.8,1.3,1.2,2c0.7,1.2,1.3,2.5,1.9,3.8c0.6,1.3,1,2.6,1.5,4c-0.2-0.5-0.6-2.5,0,0.1c0.2,0.8,0.4,1.6,0.6,2.4
		c1.4,6.2,1.9,12.6,2.1,19c0.1,3.5,0.2,7,0.2,10.5c0,1.7,0,3.5-0.1,5.2c0,0.7,0,1.5-0.1,2.2c0,0.4,0,0.8,0,1.1c0,0.1,0,0.3,0,0.5
		c-0.7,11.3-2.2,22.6-4.5,33.7c-12,19.8-25.6,42.9-22.5,66.6c0.9,6.7,7.9,10.1,14.2,9.5c7.5-0.7,15-4.9,18.6-11.8
		c9.3-17.9,16.5-37,21.4-56.6C193,201.3,193.3,200.7,193.7,200.1z M140.2,102.5c0.4-0.1,0.8-0.2,0.8-0.1
		C141.1,102.5,140.7,102.5,140.2,102.5z"/>
	<path class="st0" d="M289.2,247C289.2,247,289.2,247,289.2,247c0.6-0.3,1.2-0.5,1.8-0.7C292.1,245.6,291.9,245,289.2,247z"/>
	<path class="st0" d="M289.2,213.8C289.2,213.8,289.2,213.8,289.2,213.8c-0.1,0-0.1,0-0.2,0C289.1,213.7,289.2,213.8,289.2,213.8
		C289.2,213.8,289.2,213.8,289.2,213.8z"/>
	<path class="st0" d="M416.7,167.5c-0.3,0-0.7,0-1,0C415.9,167.5,416.2,167.5,416.7,167.5C416.7,167.5,416.7,167.5,416.7,167.5z"/>
	<path class="st0" d="M521.5,195.6c18,5.1,35.8,11.1,53.1,17.8c11.7,4.5,23.1,9.8,34.6,14.8c5.5,2.4,11,4.9,16.5,7.5
		c1.4,0.7,2.9,1.3,4.3,2c0.7,0.4,0.7,0.3,2,1.4c3.2,2.9,6,5.2,10.3,6.5c8.9,2.7,17.9,0.7,24.7-5.9c4.6-4.5,8.3-12.5,4.3-18.3
		c5.5,1.1,11.1,1.8,16.8,2.1c18.1,0.8,35.9-1.7,52.4-9.6c27.8-13.2,50.9-44,42.3-76c-4-14.8-13.6-26.6-27.6-33.1
		c-13-6.1-28.7-7.4-42.8-5.2c-31.5,4.8-60.5,22.5-78,49.3c-9.2,14.1-13.5,30.9-13.1,47.7c0.1,2.2,0.2,4.4,0.5,6.5
		c-10.6-3.5-21.4-6.6-32.1-9.9c-14.4-4.5-28.8-8.7-43.3-12.8c7.2-2.8,14.3-6,21.2-9.8c9.2-5,18.9-10.7,26.5-17.9
		c7.8-7.3,14.1-20.3,4.2-28.8c-7.6-6.5-18.7-5.5-27.7-3.7c-9.5,1.9-18.8,5.4-27.2,10.1c-8.3,4.6-16,10.4-22.8,17
		c-0.3-1.7-0.5-3.5-0.5-5.3c0.1-5.1,0.3-10.3,0.6-15.4c0-0.4-0.6-0.2-0.6,0c-0.6,4.5-1.2,8.9-2.1,13.3c-0.9,5-3,9.4-4.1,14.3
		c0,0.2-0.1,0.3-0.1,0.5c-4.9,5.9-9.1,12.3-12.4,19.3c-0.1,0.2-0.2,0.4-0.3,0.6c-3.3,2.9-5.2,7.2-4.3,10.7c-2.3,7-3.8,14.3-4.3,21.6
		c-0.8,12.3,0.9,23.6,5.1,35.3c2,5.6,10.6,4.9,14.8,3.3c5.4-2.1,10.2-6.8,10-13c-0.3-8.5-0.9-17-1-25.5
		C521.3,203.2,521.4,199.4,521.5,195.6z M744.5,177c0.2-0.3,0.9-1.5,0.9-1.4C745.5,175.7,745.1,176.3,744.5,177z M719,125.9
		C718.1,125.9,716.8,125.7,719,125.9L719,125.9z M706.2,126.9C706,126.9,706,126.9,706.2,126.9L706.2,126.9z M656.2,181.1
		C656.3,180.1,656.3,180.6,656.2,181.1L656.2,181.1z M656.2,181.6c0.1-1,0.2-2,0.3-3c0.3-2.7,0.8-5.4,1.5-8c0.3-1.4,0.8-2.8,1.2-4.2
		c0-0.1,0-0.1,0-0.2c0.2-0.5,0.4-1,0.6-1.4c1.1-2.7,2.4-5.3,3.8-7.8c0.6-1.1,1.2-2.1,1.9-3.2c0.2-0.3,0.3-0.5,0.3-0.6
		c0.3-0.4,0.7-0.8,0.8-1c1.6-2.2,3.3-4.2,5.1-6.2c0.3-0.3,0.6-0.7,0.9-1c1.1-0.5,2.7-2.6,3.5-3.3c2.1-1.7,4.2-3.4,6.4-5
		c0.3-0.2,0.6-0.4,0.9-0.6c0,0-0.1,0-0.1,0c0,0,0.1,0,0.1,0c0.2-0.1,0.4-0.3,0.6-0.4c0.8-0.6,1.1-0.5,1-0.3c0.8-0.5,1.5-1.1,2.1-1.4
		c2.4-1.3,4.9-2.4,7.3-3.5c0.2-0.1,0.3-0.2,0.4-0.2c0.1-0.1,0.3-0.1,0.5-0.2c1.6-0.6,3.2-1.1,4.8-1.6c1-0.3,7.2-1.3,7.6-1.9
		c0.4-0.1,0.8-0.1,1.2-0.2c1.4-0.2,2.8-0.3,4.3-0.4c1.4-0.1,2.8-0.2,4.3-0.2c0.5,0,1,0,1.6,0c2.8,0.2,5.5,0.6,8.2,1.2
		c0.6,0.1,1.2,0.3,1.7,0.4c0.1,0,0.1,0,0.1,0c1,0.4,2,0.7,3,1.1c1.3,0.5,2.5,1.1,3.7,1.7c0.8,0.4,4.1,2.7,2.1,1.1c2,1.6,4,3.1,5.7,5
		c0.3,0.4,0.7,0.7,1,1.1c0.9,1.3,1.7,2.6,2.4,4c0.6,1.2,1.2,2.5,1.7,3.8c0.2,0.5,0.6,1.9,0.6,2.1c0.6,2.7,1,5.4,1.1,8.1
		c0,0.3,0,1.7,0,2.4c0,0.5-0.1,1.2-0.1,1.4c-0.1,0.6-0.1,1.2-0.2,1.8c-0.4,2.5-1,5-1.7,7.4c0.1-0.5-0.7,1.8-1,2.5
		c-0.6,1.3-1.2,2.6-2,3.8c-0.3,0.5-0.6,1.1-0.9,1.6c-0.2,0.3-0.2,0.4-0.3,0.5c-0.9,1.1-2.1,2.3-2.2,2.5c-0.3,0.3-1,0.9-1.6,1.4
		c0.2-0.1,0.2,0.2-0.6,0.8c-0.1,0.1-0.2,0.2-0.4,0.3c-0.1,0.1-0.1,0.2-0.1,0.3c0-0.1,0-0.1,0.1-0.2c-0.4,0.3-0.7,0.6-1.1,0.9
		c-1.2,0.9-2.4,1.8-3.6,2.7c-0.3,0.2-0.6,0.4-0.8,0.5c-1.5,0.9-3,1.7-4.6,2.4c-0.6,0.3-1.2,0.5-1.8,0.8c-0.1,0-0.2,0.1-0.3,0.1
		c-2.9,1-5.7,2-8.6,2.7c-0.9,0.2-4.2,0.4-5,1c-0.6,0.1-1.3,0.2-1.9,0.3c-3.7,0.4-7.5,0.6-11.2,0.6c-0.6,0-1.2,0-1.8,0
		c1.8,0-1.2-0.1-1.7-0.1c-2.1-0.2-4.2-0.4-6.3-0.6c-3.9-0.5-7.8-1.2-11.7-1.8c-7.7-1.1-15.4-2.7-23-4.5c0-0.5-0.1-1.1-0.1-1.6
		C656.2,184.2,656.2,182.9,656.2,181.6z M579.3,139.1c-0.1,0-0.1,0-0.2,0C578.9,138.9,579.1,139,579.3,139.1z M573.8,138.9
		C572.3,139.2,573.2,139,573.8,138.9L573.8,138.9z M537.1,159.6c0.6-0.6,1.1-1.3,1.7-1.9c0.1-0.1,0.6-0.6,0.9-1
		c0.5-0.4,1.9-1.7,1.7-1.6c0.8-0.7,1.6-1.4,2.4-2.1c1.3-1.1,2.7-2.1,4.1-3.1c0.9-0.6,1.7-1.2,2.6-1.8c-0.5,0.3-2,1.2,0.3-0.2
		c3.3-2,6.7-3.7,10.3-5.3c0.2-0.1,0.7-0.3,1-0.4c0.6-0.2,1.2-0.4,1.8-0.6c1.6-0.6,3.3-1.1,4.9-1.5c1.6-0.4,3.3-0.8,4.9-1.2
		c0.1,0,0.2,0,0.2,0c0.9-0.1,1.8-0.1,2.6-0.2c-0.3,0.1,1.1,0.2,2,0.3c0,0,0.7,0.2,0.9,0.4c-0.2-0.1-0.4-0.2-0.5-0.3
		c0.1,0,0.1,0,0.2,0c0.3,0.2,0.7,0.4,0.2,0.3c-0.6-0.2,0.1,0.8,0.3,0.4c-0.2,0.6-1,1.2-1.2,1.5c-6.2,5.6-12,8.5-19.6,12.5
		c-8.4,4.5-15.8,7.5-23.6,10.3c-0.9,0.3-1.8,0.6-2.7,0.9C534.1,163.1,535.6,161.3,537.1,159.6z"/>
	<path class="st0" d="M685.1,135.4c-0.6,0.4-1.1,0.7-1.6,0.8c0,0,0,0,0,0C684.4,136.1,685,135.6,685.1,135.4z"/>
	<path class="st0" d="M739.6,182.2C739.7,182.1,739.7,182.1,739.6,182.2c0.2-0.4,0.6-0.8,1-1.2C740.4,181.1,739.8,181.5,739.6,182.2
		z"/>
	<path class="st0" d="M852.5,187.4C852.6,187.4,852.6,187.4,852.5,187.4c0.8-0.2,1.6-0.3,2.4-0.4C855.7,186.8,854,187.1,852.5,187.4
		z"/>
	<path class="st0" d="M769.7,201.9c-3.8,3-8.1,8.3-8.9,13.3c-1.6,11.2,7.6,17.6,18.1,17c9.5-0.6,19.2-1.3,28.9-2.2
		c0.7,0.8,1.3,1.7,1.9,2.5c1.6,2.2,5.4,1.2,6.5-1.2c0.3-0.7,0.7-1.5,1.1-2.2c55.5-5.8,111.8-18.5,156.3-52.9
		c8.5-6.6,17.2-15.6,19.6-26.5c2.1-9.4-1.2-19.4-9-25.2c-7.4-5.5-16.1-7.8-25-9.5c-9.1-1.7-18.2-3.2-27.4-4.3
		c-19.4-2.4-38.9-3.4-58.4-3.1c-9.2,0.1-18.5,0.6-27.7,1.4c-10.3,0.9-20.9,1.7-30.3,6.3c-4.1,2-7.8,4.6-10.8,8
		c-0.5,0.6-1,1.2-1.5,1.8c-0.8,1.2-1.6,2.3-2.3,3.5c1.4-2.2,1.4-2.1-0.1,0.1c-2.8,4.3-4.8,9.1-5.6,14.2c-1.5,9.5-0.4,19.5,0.3,29
		c0.5,7.4,1.5,14.8,2.6,22.2c-3.8,0.4-7.6,0.7-11.3,1C780.6,195.8,774.4,198.2,769.7,201.9z M909.8,172.2c1-0.4,2-0.8,1.9-0.7
		C911.1,171.8,910.4,172,909.8,172.2z M952.5,152C952.5,152,952.5,152,952.5,152C952.8,152.2,952.8,152.2,952.5,152z M827.6,140.5
		C828.6,140.2,828.2,140.4,827.6,140.5C827.6,140.5,827.6,140.5,827.6,140.5z M824.9,141.7c-0.2,0.1-0.3,0.1-0.4,0.1
		C824.6,141.8,824.7,141.7,824.9,141.7z M824.9,180.9c0.6-9.2,1-18.4,1.3-27.6c0-1.1,0.1-2.2,0.1-3.4c0,0,0-0.5,0-0.9
		c0.1-0.6,0.2-2.7,0.3-3.3c0.2-1.7,0.5-3.3,0.9-4.9c1.6-0.1,4-0.6,4.5-0.6c8.1-0.6,16.1-0.9,24.2-1c4,0,8.1,0,12.1,0.1
		c1.9,0,3.8,0.1,5.7,0.2c0.1,0,0.1,0,0.2,0c1.3,0.1,2.7,0.1,4,0.2c8.1,0.5,16.1,1.1,24.1,2.1c8.3,1,16.6,2.2,24.8,3.6
		c4,0.7,7.9,1.5,11.9,2.3c1.8,0.4,3.7,0.8,5.5,1.2c0.6,0.1,1.2,0.3,1.9,0.4c0,0,0,0,0,0c1.2,0.4,2.5,0.9,3.7,1.4
		c0.1,0.1,0.2,0.1,0.4,0.2c-1.1,0.8-2.1,1.5-3.2,2.2c-0.3,0.2-0.5,0.3-0.7,0.5c-0.4,0.2-0.8,0.5-1.2,0.7c0,0-0.2,0.1-0.6,0.3
		c-0.8,0.5-1.6,1-2.4,1.5c-3.2,1.9-6.4,3.7-9.7,5.5c-6.1,3.2-12.4,6.2-18.8,8.8c-1.5,0.6-2.9,1.2-4.4,1.8c-0.2,0.1-0.4,0.1-0.5,0.2
		c-3.5,1.3-7,2.5-10.5,3.7c-6.6,2.2-13.4,4.1-20.1,5.8c-7.7,1.9-15.5,3.6-23.4,5.1c-0.1,0-0.1,0-0.2,0c-0.2,0.1-0.7,0.1-1.5,0.3
		c-0.2,0-0.5,0.1-0.7,0.1c-0.1,0-0.2,0-0.3,0.1c0.1,0,0.2,0,0.2-0.1c-1.8,0.3-3.6,0.6-5.5,0.9c-4,0.6-7.9,1.2-11.9,1.7
		c-3.6,0.5-7.3,0.9-10.9,1.4C824.5,187.9,824.7,184.4,824.9,180.9z"/>
	<path class="st0" d="M1115,137.4c-1.3-7.4-8.7-9.7-15.4-8.5c-6.4,1.1-16.1,6.6-16.6,14.1c-0.4,6.6-1.3,13.2-3.1,19.6
		c-0.1,0.5-1.2,3.8-1.1,3.5c-0.5,1.2-1,2.4-1.5,3.6c-1.2,2.7-2.6,5.2-4.1,7.7c0-0.1-1.8,2.5-2.1,2.9c-0.9,1.2-1.9,2.4-2.9,3.5
		c-0.2,0.2-0.6,0.7-1,1c0,0-0.1,0.1-0.1,0.1c-0.6,0.5-1.2,1.1-1.9,1.6c-0.2,0.1-0.7,0.5-1.1,0.9c-0.1,0.1-0.2,0.2-0.3,0.2
		c-0.7,0.4-1.4,0.8-2.2,1.2c-0.4,0.2-1.7,0.8-2.4,1.1c-0.8,0.3-2.5,0.8-2.9,0.9c-0.8,0.2-1.6,0.4-2.4,0.6c-0.1,0-0.2,0-0.3,0.1
		c-0.1,0-0.1,0-0.2,0c-1.4,0.1-2.9,0.3-4.3,0.3c-0.8,0-1.6,0.1-2.5,0.1c0,0-0.3,0-0.6,0c-0.5-0.1-1.3-0.1-1.5-0.2
		c-0.6-0.1-1.2-0.2-1.8-0.3c-0.6-0.1-1.3-0.3-1.9-0.4c-0.1,0-1.4-0.4-1.7-0.6c-5.2-2-9-4.8-12.7-9.1c-7.3-8.5-10.3-21-9.7-32.1
		c0.9-16.6,7.9-32.1,15.8-46.4c2.1-3.8-4.4-3.7-6-1c-9.2,15.3-19.5,30.2-24.2,47.6c-3.7,14-3.2,30,3.4,43
		c7.6,15.1,23.2,23.2,39.7,23.3c15.1,0.1,29.5-6,41.1-15.4c-0.6,5.9-1.5,11.9-3.1,18.2c-0.6,2.5-1.3,5.1-2.1,7.6
		c-0.3,1-0.6,2.1-1,3.1c-0.1,0.3-0.3,0.8-0.4,1.2c-1.8,4.6-3.8,9-6.2,13.3c-0.6,1.1-1.3,2.2-2,3.3c-0.1,0.2-0.3,0.6-0.5,0.9
		c0-0.1,0.1-0.2,0.1-0.3c-0.8,2.1-3.2,4.4-4.7,6.1c-0.7,0.8-3.2,4.6-4.3,4.8c0.6-0.5,1.1-1.1,1.7-1.6c-0.6,0.6-1.2,1.2-1.9,1.7
		c-1.3,1.1-2.6,2.2-3.9,3.3c-1,0.8-2.1,1.5-3.1,2.3c-3.1,2.3,0.9-0.5,1-0.6c-0.7,1.5-5.7,3.2-7.2,3.9c-1.1,0.5-2.3,1-3.5,1.6
		c-0.1,0-0.3,0.1-0.4,0.1c-2.6,0.8-5.2,1.7-7.8,2.4c-2.2,0.6-4.7,1.4-7,1.7c-0.6,0-1.3,0.1-1.6,0.1c-0.9,0.1-1.8,0.2-2.8,0.4
		c-5.8,0.7-11.6,1.1-17.4,1.2c-5.3,0.1-10.7,0-16-0.1c-0.3,0-0.5,0-0.7,0c0,0,0,0-0.1,0c-1.3-0.1-2.6-0.1-3.9-0.2
		c-3.6-0.2-7.3-0.4-10.9-0.7c-12-0.9-24-2.2-35.9-3.8c-49-6.2-97.4-16.4-146.6-21.3c-47.9-4.8-98-5.2-144.5,9.3
		c-23.1,7.2-45.3,17.8-64.3,32.9c-18.3,14.6-35.4,33.8-37.6,58.1C547,362,565,361,570.5,352.9c1.4-2.1,2.9-4,4.4-6
		c0.7-1,4.5-6.1,2.2-3c0.7-1,1.4-2,2.1-3c2.9-4,6.3-7.5,9.4-11.3c2.8-3.5,5.7-6.7,8.7-9.9c0,0,0,0,0.1-0.1c0.9-0.8,1.7-1.6,2.6-2.4
		c2-1.7,4-3.4,6.1-5c1.8-1.4,3.6-2.7,5.4-4c1-0.7,2-1.4,3-2c4.2-2.5,8.3-4.9,12.7-7c4.1-2,8.2-4,12.5-5.7c0,0,0.1,0,0.1,0
		c-0.1,0-0.3,0.1-0.5,0.1c0.3-0.1,0.6-0.2,0.8-0.3c-0.1,0-0.3,0.1-0.4,0.1c4.5-1.3,2-0.7,0.5-0.2c0.9-0.3,1.7-0.7,2.6-1
		c2.7-1,5.5-1.9,8.3-2.8c4.3-1.4,8.7-2.6,13.2-3.7c2.4-0.6,4.8-1.1,7.2-1.6c0.8-0.2,1.6-0.3,2.4-0.5c0.4-0.1,1.8-0.3,2.9-0.6
		c12-2.4,24.5-3.4,36.7-4c11.4-0.6,22.7-0.6,34.1-0.2c0.7,0,2.6,0.1,2.9,0.1c1.5,0.1,3.1,0.2,4.6,0.3c2.8,0.2,5.7,0.4,8.5,0.6
		c6.5,0.5,12.9,1.1,19.4,1.8c49.1,5.3,97.5,16,146.6,21.5c24.7,2.8,49.8,4.9,74.6,3.9c25.5-1.1,50.6-7.1,71.9-21.7
		c21.4-14.6,36.1-38.8,42.1-63.8C1124.9,193.4,1119.8,165,1115,137.4z M1064.6,187.1C1065,186.7,1064.9,186.8,1064.6,187.1
		L1064.6,187.1z"/>
	<path class="st0" d="M480.4,214.6c-0.1-0.5-0.2-0.9-0.3-1.4c5.3-11.2,6.8-24.3,3.3-36.2c-4-13.4-14.5-23.4-26.6-29.9
		c-25.9-13.7-58.1-8.5-81.8,7.2c-14.3,9.6-25.1,24.4-30.2,40.9c-4.9,2.1-9.8,6.1-10.7,11.5c-0.2,1.3-0.5,2.6-0.8,3.9
		c0,0.2-0.1,0.4-0.1,0.5c-0.1,0.1-0.1,0.2-0.2,0.4c-0.1,0.3-0.4,0.7-0.6,1c-0.5-3.5-1.4-6.9-2.8-10.3c-0.8-1.9-1.8-3.7-2.9-5.4
		c-0.8-19.5-2.2-39-6.3-58.1c-3.6-16.8-16.8-31.2-35.2-26.9c-15.7,3.6-25.6,19.7-31.1,33.7c-6.1,15.5-7.9,31.4-3.9,47.6
		c-12.5,6.3-24.7,15.2-33.6,26.1c-8.5,10.4-15.9,25.3-12.3,39.1c3.8,14.5,14.9,22.2,28.8,26.2c11.4,3.2,23.8,2.9,35.4,1.1
		c15.2-2.4,29.7-6.7,43.6-13.3c14.6-6.9,29.5-16.5,40.1-28.8c0.7-0.8,1.3-1.6,2-2.4c2.1,0.2,4.3,0,6.5-0.7c2.3-0.7,5-2,7.5-3.8
		c0.4,0.7,0.8,1.4,1.2,2.1c6.7,10.7,18.3,16.3,30.4,18.5c14.4,2.6,29.4-1.6,42.4-7.7c2.7-1.3,5.4-2.7,7.9-4.2
		c-0.3,5.8-0.5,11.6-0.7,17.6c-0.1,3.8-0.2,7.7-0.4,11.5c0,1.1-0.1,2.2-0.1,3.3c0,0,0,0.1,0,0.4c-3.1-0.9-6.2-1.7-9.3-2.4
		c-7.1-1.6-14.2-2.9-21.4-3.9c-58.2-8.1-117.9,6.2-168.5,35.3c-13.8,7.9-27.4,16.5-39.6,26.7c-11.9,10-22.7,21.2-32,33.6
		c-2.1,2.8-2.9,6.7,0.4,8.9c3.5,2.2,8,0.8,11.1-1.4c11.4-8.3,23-16.4,34.6-24.5c5.6-4,11.3-7.8,17-11.7c1.4-0.9,2.7-1.8,4.1-2.7
		c0.3-0.2,0.6-0.4,0.9-0.6c0.3-0.2,0.8-0.5,1-0.6c3-1.8,6-3.7,9.1-5.4c5.9-3.4,12-6.5,18.1-9.5c3-1.4,6-2.8,9-4.1
		c1.7-0.8,3.5-1.5,5.2-2.2c0.7-0.3,3.8-1.5,3.7-1.4c12.8-4.7,25.8-8.7,39.2-11.4c1-0.2,2-0.4,2.9-0.6c0,0,0.4-0.1,0.7-0.1
		c0.6-0.1,1.6-0.3,1.8-0.3c0.7-0.1,1.5-0.2,2.2-0.3c3.7-0.6,7.4-1,11.1-1.4c7.2-0.7,14.4-1.1,21.6-1.2c2,0,4,0,6,0
		c0.7,0,1.5,0,2.2,0.1c0.2,0,1.4,0.1,1.9,0.1c0.4,0,0.7,0,0.8,0c1,0.1,2,0.1,3,0.2c2,0.1,4,0.3,5.9,0.5c7.2,0.7,14.3,1.8,21.3,3.3
		c1.7,0.4,3.4,0.7,5.1,1.2c1,0.2,1.9,0.5,2.9,0.8c0,0,0.4,0.1,0.8,0.2c0.5,0.2,1.6,0.5,1.8,0.5c0.7,0.2,1.4,0.4,2.1,0.7
		c1.9,0.6,3.7,1.2,5.6,1.9c7.2,2.6,14.3,7.3,22,8.2c14.2,1.6,29.3-7.9,32.2-22.3c1.6-8,0.9-16.7,0.8-24.8
		C485.8,249.6,483.8,232.1,480.4,214.6z M245.2,233.8c-0.3,0.4-0.5,0.8-0.8,1.2C244.6,234.5,244.9,234,245.2,233.8z M244.8,249.5
		c0.4,0.3,0.7,0.5,1,0.7C245.3,249.9,244.8,249.7,244.8,249.5z M295.9,244.1c-1.3,0.6-2.5,1.2-3.8,1.7c-0.4,0.2-0.8,0.3-1.2,0.5
		c-0.3,0.2-0.6,0.3-1.1,0.5c-0.2,0.1-0.4,0.1-0.6,0.2c-0.1,0.1-0.2,0.1-0.3,0.2c0.1-0.1,0.2-0.1,0.3-0.2c-2.4,0.9-4.9,1.6-7.3,2.3
		c-2.5,0.7-5,1.3-7.5,1.9c-0.6,0.1-1.3,0.2-2,0.4c1.6-0.4,3.3-1.3-0.6,0.1c0.1,0,0.2,0,0.2-0.1c-0.1,0-0.3,0.1-0.4,0.1
		c0.1,0,0.1,0,0.2-0.1c-0.1,0-0.2,0-0.3,0.1c-4.7,0.7-9.4,1-14.1,1.3c0,0,0,0,0,0c-0.7-0.1-1.3-0.1-2-0.2c-1.8-0.2-3.6-0.6-5.4-1
		c-0.1,0-0.1-0.1-0.2-0.1c-0.7-0.3-1.4-0.5-2-0.8c-0.1-0.1-0.8-0.3-1.4-0.6c-0.1-0.1-0.3-0.2-0.6-0.4c-0.3-0.2-0.5-0.5-0.8-0.7
		c-0.2-0.1-1-0.8-1.6-1.4c-0.1-0.2-0.1-0.4-0.3-0.7c-0.2-0.4-0.4-0.9-0.6-1.3c-0.1-0.2-0.6-1.6-0.7-2.2c-0.1-0.6-0.1-1.1-0.1-1.7
		c0.1,2.4,0.2-0.8,0.4-1.6c0.1-0.5,0.3-1.5,0.5-2.1c0.5-0.8,1.1-1.8,1.3-2.2c0.1-0.2,0.3-0.5,0.5-0.9c0.4-0.6,0.9-1.2,1.4-1.8
		c0.3-0.4,1.6-2.1,2.4-3.1c3.2-3.4,7.7-5.4,11.1-8.5c0.2-0.1,0.4-0.2,0.6-0.4c0.8-0.5,1.6-0.9,2.5-1.4c2.3-1.2,4.6-2.3,7-3.4
		c0.2-0.1,0.4-0.2,0.6-0.3c0.5-0.2,0.8-0.3,1.1-0.4c0.5-0.1,0.9-0.2,1.2-0.3c2.6-0.8,5.2-1.4,7.8-2.1c1.4-0.1,2.8-0.3,4.3-0.4
		c0.2,0,0.4,0,0.7,0c2,0,1.7,0-0.7-0.1c1.1-0.4,3.3,0.4,4.4,0.6c0.2,0,0.3,0.1,0.5,0.1c-0.1,0-0.2-0.1-0.4-0.1c0.1,0,0.3,0,0.5,0.1
		c1.5,0.4,1.5,0.4,0,0c0.6,0.2,1.5,0.7,2,1.1c0.6,0.5,1.6,1.3,1.6,1.3c0.4,0.3,0.7,0.7,1,1.1c0.1,0.1,0.1,0.2,0.3,0.4
		c0.4,1,1.1,1.9,1.5,2.8c0.4,0.7,0.7,1.5,1,2.3c0.2,0.8,0.3,1.6,0.5,2.4C296.8,231.6,296.4,237.9,295.9,244.1z M268.8,216.7
		c0.3-0.4,1.2-0.6,2-0.8C270.4,216.1,269.8,216.3,268.8,216.7z M296.6,222.3c0,0,0,0.1,0,0.1C296.3,221.5,296.3,221.4,296.6,222.3z
		 M293.3,181.7c-11.3-0.2-22.9,2.9-33.6,7.3c0.8-11.4,3.5-23,7.8-33.5c2.3-5.6,5.1-11.1,8.6-16c1.7-2.4,3.5-4.8,5.6-6.8
		c0.5-0.5,1.1-1,1.9-1.6c0.6-0.4,0.7-0.5,1.1-0.7c0,0,0.1,0,0.1,0c0.1,0,0.1,0.1,0.2,0.1c0.6,0.2,1.4,0.4,2.5,1.2
		c1.4,0.9,2.9,2.5,3.8,4.1c3,5.1,3.3,12.2,3.9,18c1.1,9.3,1.8,18.8,2.2,28.2C296,181.8,294.7,181.8,293.3,181.7z M408.6,167.8
		c-0.6,0.1-1.1,0.2-1.7,0.3C407.6,167.9,408.6,167.7,408.6,167.8z M451.6,208.1c-0.1,0.2-0.1,0.4-0.1,0.6c-0.1,0.1-0.1,0.3-0.2,0.5
		c-0.4,1.1-0.9,2.2-1.5,3.2c-0.5,0.9-0.9,1.8-1.5,2.6c0.3-0.5-1.3,1.9-1.5,2.2c-1.1,1.5-2.4,2.8-3.6,4.2c0.5-0.5-1.6,1.6-1.8,1.8
		c-1.3,1.2-2.7,2.4-4.1,3.5c-1.4,1.1-2.9,2.2-4.5,3.2c-0.3,0.1-2.2,1.3-2.4,1.4c-1.2,0.7-2.5,1.3-3.7,2c-1.1,0.5-2.2,1-3.3,1.5
		c-0.3,0.1-0.9,0.4-1.1,0.4c-3,1-6.1,1.9-9.2,2.5c-0.8,0.1-3.7,0.7-4.4,0.8c0.2,0-2.6,0.2-2.6,0.3c-3,0.3-5.8,0.2-8.8-0.3
		c-5.3-0.9-10.1-3.2-14.7-5.9c-2.9-1.7-5.4-3.7-7.6-6c0.1-1,0.1-2-0.1-3.1c-0.5-2.5-0.9-4.9-1-7.4c-0.1-1.3-0.1-2.5-0.2-3.8
		c0,0.1,0-1.2,0-2c0.1-0.7,0.2-2.2,0.2-2.1c0.1-1.2,0.3-2.5,0.5-3.7c0.5-2.7,1.1-5.3,1.9-8c0.2-0.6,0.4-1.2,0.6-1.8
		c0.1-0.1,0.8-2.1,1-2.3c1-2.3,2.1-4.5,3.4-6.7c0.4-0.7,0.9-1.4,1.3-2.1c-2,3.3,0.2-0.1,0.6-0.7c0.8-1,1.5-2,2.3-2.9
		c0.1-0.1,0.7-0.8,1.3-1.5c0.4-0.3,1.6-1.5,1.7-1.6c1-0.8,1.9-1.6,3-2.4c0.3-0.2,0.7-0.6,1-0.9c0.8-0.5,1.8-0.9,2.5-1.3
		c1.4-0.7,3-1.8,4.5-2.3c0.6-0.1,1.2-0.2,1.6-0.4c1.6-0.5,3.3-1,4.9-1.3c0.1,0,0.4-0.1,0.7-0.2c0.8-0.1,1.6-0.2,2.5-0.3
		c2.1-0.2,4.2-0.2,6.3-0.3c-1.1,0,0.3-0.1,1,0c0,0,0,0,0,0c0.1,0,0.2,0,0.3,0c-0.1,0-0.2,0-0.3,0c1.3,0.1,2.5,0.2,3.7,0.4
		c1.3,0.2,2.5,0.4,3.8,0.6c0.5,0.1,4.2,1,3.5,0.8c3.8,1.2,7.5,2.9,11,4.9c0.1,0.1,1.2,0.8,1.6,1.1c0.9,0.6,1.7,1.3,2.5,2
		c1,0.8,1.9,1.7,2.8,2.6c0.3,0.3,2.6,3.1,2.3,2.6c2.4,3.5,3.9,7.1,4.6,10.2C452.2,197.7,451.9,202.9,451.6,208.1z M456.9,280.5
		c0.2,0.1,0.7,0.2,0.9,0.3C457.5,280.7,457.2,280.6,456.9,280.5z M465.9,283.2c-0.1,0-0.2-0.1-0.4-0.1c0,0,0,0,0,0
		C466.3,283.3,467.4,283.7,465.9,283.2z"/>
</g>
<g>
	<path class="st0" d="M-806.6,136.4c0.4,0,0.9,0,1.2,0.1c0,0,0,0,0,0C-806.3,136.1-807,136.3-806.6,136.4z"/>
	<path class="st0" d="M-789.6,133.6C-789.6,133.6-789.5,133.6-789.6,133.6c0.7-0.3,1.3-0.6,1.9-0.8
		C-787.6,132.7-788,132.8-789.6,133.6z"/>
	<path class="st0" d="M-799.1,136.1c0.5-0.1,0.9-0.3,1.4-0.4C-797.9,135.7-798.4,135.8-799.1,136.1
		C-799.1,136.1-799.1,136.1-799.1,136.1z"/>
	<path class="st0" d="M-648.9,178.9c0.1-0.3,0.3-0.7,0.4-1C-648.6,178.2-648.7,178.5-648.9,178.9C-648.9,179-648.9,179-648.9,178.9z
		"/>
	<path class="st0" d="M-705.1,178.8C-705.1,178.8-705.1,178.8-705.1,178.8c0,0.5,0,0.8,0,1.2C-705,180.3-704.9,180.1-705.1,178.8z"
		/>
	<path class="st0" d="M-758.3,89.6c-0.2-0.2-0.5-0.4-0.7-0.5c0,0,0,0,0,0C-758.5,89.6-758.3,89.7-758.3,89.6z"/>
	<path class="st0" d="M-639.6,205c10.1-8.9,19.1-19.3,23.2-32.4c3.7-11.9,0-24-8.4-32.9c-14.9-15.8-40.2-18.5-60.1-13
		c-22.2,6.2-40.4,22.4-47.3,44.5c-2.7,8.6-3.4,17.6-2.2,26.3c-1.3-0.8-2.7-1.6-4-2.4c-0.1-0.1-0.3-0.2-0.3-0.2c0,0-0.1,0-0.1-0.1
		c-1-0.7-2.1-1.4-3.1-2.1c-7.5-5.3-14.5-11.3-20.9-17.9c-6.2-6.3-11.7-13.1-17.4-19.7c12.3-5.5,23.6-13.9,32.9-23
		c9.1-9,18.5-20.1,21.7-32.8c3.5-13.8-5.3-25.7-18.1-30.2c-24.3-8.5-51.6,3.9-67.1,23.1c-3.7,4.5-6.7,9.4-9.3,14.5
		c1-10.8-1.4-21.4-9.2-30.4c-12.2-14-33-11.5-48.4-5.1c-13.4,5.6-25.5,15.9-34.8,26.9c-17.1,20.3-26.1,46.2-28.7,72.3
		c-1.7,17.1-1.3,34.3,1.9,51.1c1.7,8.9,4.1,17.2,7.4,25.6c1.6,3.9,3.1,7.9,5.3,11.5c2.5,3.9,5.6,7.2,7.5,11.5c2,4.3,10,0,8.5-4.3
		c-1.2-3.6-1.3-7.2-1.4-11c-0.1-3.4-0.7-6.7-1.2-10.2c-0.9-6.8-1.3-13.6-2-20.4c-0.9-8.7-1.3-17.4-1.1-26.2
		c12.7,0.5,26.5-4.8,36.9-11.2c12.7-7.8,24.4-17,34.1-28.4c5.4-6.3,10.9-14.1,15.5-22.5c-0.6,3.1-1.1,6.2-1.5,9.3c0,0,0,0.1-0.1,0.1
		c-1.1,2.5-1.9,5.5-0.9,8.1c-0.2,2.1-0.4,4.2-0.5,6.3c-0.9,14.3-0.9,28.8,1.2,43c2.1,14.5,6.6,28.5,10.7,42.5
		c0.1,0.2,0.5,0.1,0.4-0.1c-1.4-5.7-2.4-11.3-3.1-17.1c-0.7-5.9-0.5-11.7-0.7-17.6c-0.4-11.7-0.1-23.6,1-35.2c0.5-5,1.2-10,2-14.9
		c1.4,0.3,2.8,0.6,4.2,0.8c0.5,0.3,1,0.5,1.5,0.7c0.1,0,0.1,0.1,0.2,0.1c0.3,0.2,0.7,0.5,1,0.7c1.9,1.4,3.6,3,5.3,4.7
		c0.8,0.9,1.7,1.8,2.4,2.7c0.3,0.4,0.7,0.8,1,1.2c-1.4-1.5,0.1,0.1,0.4,0.5c5.9,8,11.7,16,18.6,23.3c12.7,13.3,27.8,24.9,44.6,32.5
		c9.9,4.5,20.7,7.9,31.6,8.9c6.1,0.6,13.1-1.4,17.5-6C-673.4,227.4-654.5,218.2-639.6,205z M-856.9,115.3c-1.1,4.6-3,8.7-5.8,13.8
		c-1.2,2.2-2.5,4.3-3.8,6.5c-0.1,0.2-0.2,0.4-0.3,0.6c-0.1,0.2-0.3,0.4-0.5,0.7c-0.9,1.2-1.8,2.4-2.7,3.6c-1.8,2.4-3.8,4.7-5.8,6.9
		c-1,1.1-2.1,2.2-3.1,3.3c-0.1,0.1-0.3,0.3-0.4,0.4c-0.1,0.1-0.3,0.2-0.4,0.4c-4.1,3.6-8.6,8.1-13.4,10.6c-0.6,0.3-1.1,0.6-1.4,0.7
		c-1.3,0.8-2.6,1.4-3.9,2.2c-2.6,1.5-5.2,3-7.8,4.5c-2.8,1.6-5.5,3.1-8.3,4.6c2.7-18.2,8.1-34.7,17.5-50.8c0.5-0.9,1-1.7,1.5-2.5
		c0.2-0.4,0.4-0.7,0.5-0.9c0.1-0.2,0.3-0.4,0.5-0.7c1.4-2,2.9-4,4.4-5.9c1.5-1.9,3.1-3.7,4.8-5.5c0.3-0.3,3.3-3.1,1.6-1.6
		c0.9-0.8,1.8-1.6,2.7-2.4c2.1-1.7,4.3-3.2,6.4-4.9c0,0,0.1-0.1,0.1-0.1c0.1,0,0.1-0.1,0.2-0.1c1.4-0.8,2.8-1.5,4.3-2.3
		c0.2-0.1,0.4-0.2,0.6-0.3c0.9-0.3,1.9-0.6,2.8-0.8c0.3,0,1.5-0.2,2.1-0.3c0.5,0.1,0.9,0.2,1.1,0.2c0.5,0.3,1.3,0.6,1.8,0.8
		c0.6,0.6,1.9,1.6,1.8,1.5c0.4,0.3,0.6,0.5,0.8,0.6c0,0.2,0.2,0.5,0.4,1c0.4,0.8,0.8,1.7,1.3,2.6c0.3,0.5,0.4,0.8,0.5,0.9
		c0,0.2,0,0.5,0.1,1.1c0.2,1.2,0.4,2.4,0.5,3.6C-855.7,109.8-856.1,112.1-856.9,115.3z M-770.3,120.9c0,0,0.5-0.5,0.9-0.9
		C-769.9,120.5-770.3,120.9-770.3,120.9z M-757.3,106.1c0,0,0.1-0.2,0.3-0.4C-757.1,105.9-757.3,106.1-757.3,106.1z M-756.1,91.6
		c-0.2-0.2-0.3-0.3-0.3-0.3C-756.3,91.3-756.2,91.4-756.1,91.6z M-783.8,89C-784,89.1-784,89.1-783.8,89L-783.8,89z M-782.2,130
		c-1.3,0.7-2.6,1.5-4,2.1c-0.5,0.2-1,0.5-1.5,0.7c-0.1,0.1-0.6,0.4-1,0.5c-0.2,0.1-0.5,0.2-0.7,0.2c-0.1,0.1-0.3,0.1-0.4,0.2
		c0.1-0.1,0.2-0.1,0.3-0.2c-0.5,0.2-1.1,0.4-1.6,0.5c-2.1,0.7-4.4,1-6.5,1.5c0.5-0.1-0.2,0.3-1,0.3c-0.1,0-0.3,0-0.4,0
		c-0.2,0.1-0.4,0.1-0.5,0.2c0.2-0.1,0.3-0.1,0.5-0.2c-0.7,0.1-1.4,0.2-2.1,0.2c-1.4,0.1-2.8,0.2-4.1,0.2c0,0,0.1,0,0.1,0.1
		c-0.1,0-0.1-0.1-0.2-0.1c-0.1,0-0.3,0-0.4,0c-0.4,0-0.6,0-0.8-0.1c-0.3,0-0.5,0-0.7,0c-0.4,0-0.8-0.1-1.2-0.1
		c-1.3-0.3-2.5-0.5-3.8-0.6c-1.1-0.1-2.3-0.1-3.5,0c2.3-8.1,5.1-15.9,9.1-23.3c2.3-4.2,4.7-7.8,7.9-11.5c0.8-1,1.7-1.9,2.6-2.8
		c0.1-0.1,0.5-0.5,0.6-0.6c0.2-0.2,0.5-0.4,0.7-0.6c1.9-1.7,3.8-3.3,5.9-4.7c0.5-0.4,1-0.7,1.5-1.1c0,0,0.1,0,0.1,0
		c1-0.4,1.9-1,2.9-1.5c0.5-0.2,1-0.4,1.5-0.6c0,0,0.1,0,0.1,0c1.1-0.4,2.3-0.8,3.5-1.2c1.2-0.4,2.3-0.7,3.5-0.9
		c0.3-0.1,0.7-0.1,1-0.2c0,0,0.1,0,0.1,0c1-0.1,2.1-0.2,3.1-0.3c0.6,0,1.2,0,1.8-0.1c0.1,0,0.2,0,0.2,0c0,0,0,0,0,0
		c1.9,0.2,3.7,0.5,5.6,0.9c0.1,0,1.2,0.3,1.7,0.6c1.1,0.5,2.2,1,3.3,1.6c-0.1,0-0.1-0.1-0.2-0.1c0.1,0.1,0.1,0.1,0.2,0.2
		c0,0,0,0,0,0c0.3,0.2,0.6,0.5,0.7,0.5c0,0,0,0,0.1,0c0.8,0.7,1.5,1.5,2.3,2.2c0,0,0,0,0,0c0.1,0.2,0.3,0.5,0.3,0.6
		c0.3,0.5,0.5,0.9,0.7,1.4c0.1,0.3,0.3,1,0.4,1.3c0.1,0.6,0.1,1.2,0.2,1.8c0,0.5,0.1,1.1,0.1,1.6c0,0.1,0,0.1,0,0.2
		c-0.1,0.3-0.4,1.7-0.6,2.4c-0.1,0.3-0.2,0.6-0.3,0.7c-0.4,0.8-0.7,1.6-1.2,2.3c-0.1,0.1-0.4,0.8-0.7,1.2c-0.7,0.9-1.3,1.8-2,2.7
		c-1.7,2.1-3.4,4.1-5.2,6.1c-0.4,0.4-3.6,3.9-5.2,5.6c-0.1,0.1-0.2,0.1-0.3,0.2c-0.5,0.4-1,0.9-1.5,1.3c-1.1,1-2.2,2-3.4,2.9
		c-2,1.6-4,3.1-6.1,4.6C-781.1,129.3-781.7,129.7-782.2,130z M-669.2,197.1c0.6-0.4,1.2-0.8,1.1-0.7
		C-668.5,196.7-668.9,196.9-669.2,197.1z M-645.9,173.7c0,0,0-0.1,0-0.2C-645.9,173.6-646,173.7-645.9,173.7z M-645.8,173.2
		c0,0.1-0.1,0.1-0.1,0.2C-645.6,172.7-644.9,171.2-645.8,173.2z M-662.9,149.7c0.1,0,0.1,0,0.2,0.1
		C-663.4,149.6-664.1,149.3-662.9,149.7z M-696.5,208c-0.4-0.6-1-1.5-1.2-1.7c-2.1-3.2-3.8-6.6-5.1-10.2c-0.3-0.7-0.5-1.5-0.7-2.2
		c-0.1-0.3-0.2-0.7-0.3-1c-0.5-2-0.8-4-1.1-6.1c-0.2-1.9-0.3-3.8-0.4-5.7c0-0.3,0-0.7,0-1c0-0.1-0.1-0.4,0-0.7c0-0.1,0-0.3,0-0.4
		c0-0.1,0-0.2,0-0.3c0,0.1,0,0.1,0,0.2c0-0.4,0.1-0.8,0.1-1.1c0.2-1.9,0.5-3.8,1-5.6c0.2-0.9,0.5-1.8,0.8-2.8c0-0.1,0.1-0.3,0.1-0.4
		c0-0.1,0.1-0.2,0.1-0.3c0.7-1.8,1.5-3.5,2.5-5.2c0.3-0.6,0.7-1.1,1-1.7c0.3-0.4,0.5-0.7,0.8-1.1c0.9-1.2,2-2.3,3-3.4
		c0.1-0.1,0.2-0.2,0.4-0.3c0.8-0.7,1.7-1.4,2.5-2c0.6-0.4,1.2-0.8,1.7-1.2c0.1-0.1,0.1-0.1,0.2-0.1c1.7-1,3.5-1.9,5.3-2.7
		c0.7-0.2,1.3-0.5,2-0.7c0.9-0.3,1.8-0.5,2.7-0.8c0.3-0.1,1.8-0.4,2.4-0.5c0.3,0,0.5-0.1,0.7-0.1c0.9-0.1,1.9-0.2,2.8-0.3
		c0.9-0.1,1.9-0.1,2.8-0.1c0.3,0,0.6,0,0.9,0c1.6,0.1,3.2,0.3,4.8,0.6c0.9,0.2,1.9,0.4,2.8,0.6c0.3,0.1,0.7,0.2,1.1,0.3
		c1.7,0.6,3.3,1.3,4.9,2c0.9,0.4,1.8,0.9,2.7,1.4c0.1,0.1,0.3,0.2,0.5,0.3c-0.8-0.5-0.2,0.2,0.5,0.3c-0.1-0.1-0.1-0.1-0.2-0.1
		c0.1,0.1,0.3,0.2,0.4,0.2c-0.1,0-0.1,0-0.2,0c0,0,0,0,0.1,0c1.5,1.1,3,2.4,4.3,3.7c0.1,0.1,0.6,0.6,1,1.1c0.2,0.2,0.5,0.6,0.6,0.8
		c0.3,0.5,0.6,1,0.9,1.4c0.5,0.9,0.9,1.7,1.3,2.7c0.1,0.1,0.2,0.7,0.4,1.1c0.2,0.9,0.4,1.8,0.4,2.7c0,0.5,0,1,0.1,1.4
		c0,0,0,0.1,0,0.1c0,0,0,0,0,0c-0.2,1.1-0.3,2.2-0.6,3.2c0,0.1-0.2,0.7-0.3,1.1c-0.7,1.5-1.8,3-2.5,4.5c0.4-0.6,0.5-0.2-0.1,0.6
		c-0.1,0.1-0.2,0.3-0.3,0.4c0,0.1-0.1,0.2-0.1,0.3c0-0.1,0.1-0.2,0.1-0.2c-0.2,0.3-0.4,0.5-0.6,0.8c-0.7,0.9-1.4,1.8-2.2,2.7
		c-0.7,0.9-1.5,1.7-2.3,2.5c-0.3,0.3-0.5,0.6-0.8,0.8c-3.8,3.4-7.6,6.6-11.7,9.5c-1,0.7-2,1.3-3,2c-0.2,0.1-0.4,0.2-0.6,0.4
		c-2.2,1.3-4.5,2.6-6.8,3.7c-2.3,1.1-4.6,2.3-7,3.3c-0.3,0.1-0.6,0.2-0.8,0.4c-1.2,0.4-2.3,0.8-3.5,1.2c-2.5,0.9-5.1,1.7-7.6,2.5
		C-696.1,208.5-696.3,208.2-696.5,208z"/>
	<path class="st0" d="M-484,189.8c0,0,0.1,0,0.2,0.1c0.5-0.1,1-0.2,1.5-0.2C-482.9,189.7-483.4,189.7-484,189.8z"/>
	<path class="st0" d="M-519.8,126.9C-519.8,127-519.9,127-519.8,126.9c-0.5,0.2-0.9,0.4-1.3,0.5
		C-521.5,127.8-521.2,127.9-519.8,126.9z"/>
	<path class="st0" d="M-483.4,131.7C-483.4,131.6-483.4,131.6-483.4,131.7c0,0.2,0.1,0.4,0.1,0.5
		C-483.3,132-483.4,131.8-483.4,131.7z"/>
	<path class="st0" d="M-613.8,263.8c0.1-0.2,0.2-0.4,0.2-0.7C-614.1,264.5-614,264.3-613.8,263.8z"/>
	<path class="st0" d="M-534.7,191.4c0.4,0.2,0.6,0.2,0.1-0.1C-534.7,191.4-534.7,191.4-534.7,191.4
		C-534.7,191.4-534.7,191.4-534.7,191.4z"/>
	<path class="st0" d="M-607,120.9c4-0.6,7.1-2.7,8.4-6.5c0.5-1.6,0.6-3.2,0.7-4.9c0-0.1,0-0.2,0-0.3c0-0.1,0-0.1,0-0.2
		c0.1-0.9,0.1-1.8,0.1-2.6c0.4-1.5,0.9-3,1.6-4.3c2.9-5-1.8-8.7-6.4-8.5c-7.5,0.2-14.6,7.5-16,14.6c-0.7,3.6-0.2,7,2.4,9.7
		C-613.9,120.2-610.4,121.4-607,120.9z"/>
	<path class="st0" d="M-446.2,225.7c5.4-0.5,10.2-3.9,11.7-9.1c1.2-3.9,2.2-7.9,3.1-11.9c0.2-0.8,0.5-1.5,0.7-2.3
		c6,1.2,12.3,1.6,17.7,2.2c17.8,1.9,35.5,3.7,53.4,4.3c5.2,0.2,11-4.3,12.7-9c1.7-4.6-1.1-9.1-6-9.8c-14-2-28-3.2-42-4.2
		c-7-0.5-14-0.9-21-1.4c-2.2-0.2-5.3-0.5-7.2-0.9c3-6.3,6.5-12.5,10.5-18.7c0.1-0.1,0.1-0.2,0.1-0.2c0,0,0,0,0-0.1
		c0.3-0.5,0.7-1,1-1.5c0.7-1,1.3-1.9,2-2.9c1.5-2,3-4,4.5-6c0.2-0.3,0.5-0.6,0.7-0.9c6.9-5.2,13.8-10.4,20.7-15.6
		c12.7-9.6,25.3-19.4,37.9-29.2c2.9-2.3,5.3-6.8,2.7-10.1c-2.7-3.4-7.7-2.8-11.3-1.1c-21.3,10.1-40.7,24.1-56.8,41.2
		c-3.6,2.7-7.2,5.3-10.7,8c0.6-7.9,0.9-15.8,1-23.8c0.1-5.1,0.4-10.3-0.5-15.4c-1-5.4-1.6-10.7-2.2-16.2c-0.1-1-1.9-0.5-2,0.3
		c-0.3,5.4-0.9,10.6-2,15.9c-1.1,5.2-1.4,10.5-2.1,15.8c-1.3,10.7-3.3,21.4-5.4,31.9c-0.1,0.5-0.2,0.9-0.3,1.4
		c-10,7.8-21.1,18.4-15.5,31.9c1,2.3,2.3,4.3,3.8,6c-3.1,7.7-5.6,15.5-7.6,23.5C-455.6,222.9-450.6,226.2-446.2,225.7z"/>
	<path class="st0" d="M-168,66.8c-37.9,4.9-76.4,6.1-114.6,5.8c1-1.7,2-3.5,3-5.1c1.2-1.8,1.3-4.9,0.3-6.8c-1.2-2.3-3.4-3.1-5.7-3.8
		c-49-13.9-99.7-6.2-148.7,3.5c-14,2.8-27.9,5.8-42,8.3c-4.4,0.8-9.3,5.4-9.4,9.9c-0.1,4.9,4.1,6.8,8.5,6.8
		c19.3-0.1,38.6,0.4,57.9,1.2c5.5,0.2,8.5,0.3,13.5,0.6c5.1,0.2,10.1,0.5,15.2,0.7c10,0.5,20,1,30,1.4c15.9,0.7,31.8,1.5,47.6,2
		c-1.3,3.4-2.4,6.8-3.4,10.2c-1.2,4.5-1.9,9.2-2.9,13.7c-4.3,20.1-6.7,40.5-7.6,61c-0.2,5.4-0.7,10.9-0.1,16.2
		c0.6,5.4,1.6,10.4,3.1,15.6c0.9,3.2,5.3,1.4,6-1c1.4-4.7,2.8-9.4,3.7-14.2c0.9-4.9,1.6-9.7,2.2-14.7c1.3-10.1,2.8-20.1,4.6-30.1
		c1.8-10,3.9-19.9,6.5-29.7c1.5-5.7,2.9-9.3,4.4-14.1c0-0.1,0.2-0.4,0.2-0.7c0.1-0.3,0.2-0.6,0.3-0.8c0.6-1.6,1.2-3.2,1.7-4.8
		c0.3-1,0.6-1.9,0.9-2.9c0.2-0.5,0.4-1.1,0.6-1.6c0.1-0.2,0.1-0.3,0.2-0.5c0-0.1,0.1-0.2,0.1-0.4c0.1-0.3,0.2-0.5,0.3-0.8
		c17.8,0.4,35.7,0.4,53.5-0.1c22.1-0.6,44.1-2.6,65.9-6c5.4-0.8,12.4-4.1,13.3-10.3C-157.9,70-162.5,66.1-168,66.8z M-304,72.3
		c-27.3-0.6-54.6-1.7-81.9-2.6c5.8-0.7,11.7-1.2,17.5-1.6c5.9-0.4,11.9-0.6,17.9-0.7c6.3-0.1,10.8,0.1,16.3,0.5
		C-324.1,68.5-314,70-304,72.3C-304,72.3-304,72.3-304,72.3z"/>
	<path class="st0" d="M-180,117.7c-7-3.6-16.9,2.5-18.7,9.5c-1.7,6.9-3.9,12.7-6.5,18.9c-0.8,0.7-1.5,1.4-2.3,2.2
		c-4.8,4.3-9.7,8.5-14.9,12.3c-2.3,1.7-4.7,3.4-7,5c-0.1,0-0.2,0.1-0.3,0.1c-0.6,0.3-1.1,0.7-1.7,1c-1.4,0.8-2.9,1.6-4.4,2.3
		c-0.6,0.3-1.2,0.5-1.8,0.8c-2.1,0.9-0.3,0.2,0.2,0c-1,0.7-3,1-4.1,1.3c-0.6,0.2-1.3,0.3-1.9,0.4c0,0-0.1,0-0.1,0
		c-0.1,0-0.2,0-0.3,0c-0.6,0-1.2,0.1-1.9,0.2c-0.4,0-2,0-1.8,0c-1-0.1-1.9-0.3-2.8-0.5c-0.1,0-0.2,0-0.3-0.1
		c-0.6-0.2-1.2-0.4-1.8-0.7c-1.1-0.4-2.2-1-3.3-1.5c-0.1-0.1-0.2-0.1-0.2-0.1c-0.1,0-0.1-0.1-0.2-0.1c-0.5-0.4-1-0.8-1.5-1.2
		c-0.9-0.8-1.7-1.6-2.5-2.5c-0.3-0.3-1.4-1.9-1.3-1.7c-1.3-2-2.5-4.1-3.4-6.4c-1.5-3.8-2-8.3-2.5-13c-0.6-6.3,0.8-12,3.3-17.7
		c1.4-3.1,2.7-5.8,3.7-9c1-3.4,2.7-6.3,4.5-9.4c1.1-2-2.2-2.1-3.1-0.9c-2.3,2.9-4.5,5.8-7.1,8.5c-1.4,1.5-2.8,2.7-3.9,4.5
		c-1,1.6-2.1,3.2-3,4.9c-3.8,6.5-7.3,13.5-9.6,20.6c-3.7,11.7-0.4,26,7.6,35.1c11.2,13,30.1,10.9,44.4,5.1c3.6-1.5,7.1-3.2,10.5-5.1
		c-8,17.3-16.6,34.3-25.7,51.1c-2.3,4.2-4.5,8.4-7,12.5c-0.4,0.8-0.9,1.5-1.4,2.3c-0.2,0.3-0.4,0.6-0.6,0.8c-1,1.4-2.1,2.8-3.2,4.2
		c-0.1,0.1-0.3,0.3-0.5,0.5c-0.4,0.3-1.1,1-1.4,1.3c0,0,0,0-0.1,0c-0.3,0-0.5,0.1-0.7,0.1c-0.2,0-0.4,0.1-0.4,0.1
		c-0.7-0.1-1.5-0.4-2-0.5c-0.5-0.1-1.1-0.3-1.6-0.4c0,0,0,0-0.1,0c-0.1-0.1-0.3-0.1-0.5-0.2c-18.6-6.7-37.1-13-56.4-17.2
		c-37.5-8.3-76.8-10.8-115-7.1c-37.2,3.6-73.5,13.1-107.8,27.8c-8.1,3.4-16.1,7.2-23.8,11.4c-3.8,2.1-7.6,4.2-11.3,6.4
		c-1.9,1.1-3.7,2.2-5.5,3.4c-1.2,0.7-2.3,1.4-3.5,2.2c-0.4,0.3-0.7,0.5-0.9,0.6c-1.1,0.7-2.2,1.4-3.3,2.1c-1.6,1.1-3.3,2.2-4.9,3.3
		c6.4-10.7,10.3-22.8,12-35.1c1-7.4,1.3-14.8,1-22.3c-0.2-5.5-0.4-11-1-16.5c0.9-0.4,1.9-0.7,2.8-1.1c5.7-2.2,11.4-4.4,17.1-6.6
		c0.8,1.1,1.7,2.1,2.6,3.1c8.3,9.2,21.7,14.3,33.9,15.3c16.2,1.3,34.6-1.9,48.4-10.7c1.1-0.7,2.3-1.4,3.4-2.2
		c0.2-0.2,0.4-0.3,0.5-0.4c1.8-1.1,3.6-2.4,5.3-3.7c2.7-2,5.5-3.9,8.3-5.9c3-2.1,5.4-6.7,3.6-10.2c-1.8-3.6-6.9-4.2-10.4-3.1
		c-3.1,0.9-6.2,1.9-9.4,2.7c-0.7,0.2-3.5,1.3-4.3,1.1c-0.9,0.1-1.8,0.3-2.7,0.5c-1.2,0.2-2.4,0.5-3.5,0.7c-3.1,0.6-6,1.9-9.1,2.8
		c-3.4,1-6.9,1.5-10.3,2.5c4.2-1.2-0.4,0-1.6,0.1c-1.3,0.1-2.6,0.2-3.9,0.2c-0.6,0-1.3,0-1.9,0c-1.3-0.1-2.6-0.2-3.8-0.4
		c-1.4-0.2-2.9-0.5-4.3-0.8c-0.5-0.1-1-0.2-1.5-0.4c-2.7-1-5.4-2-7.9-3.5c-0.1-0.1-0.3-0.2-0.4-0.3c0,0,0,0,0,0c0,0,0,0,0,0
		c-0.1-0.1-0.3-0.2-0.4-0.3c0,0,0,0,0,0c-0.1,0-0.1-0.1-0.2-0.1c0.3,0.2,0.6,0.3,0.7,0.4c14.9-6.3,29.5-13.1,43.4-21.4
		c12.6-7.5,28.1-16.1,33.7-30.5c2.9-7.5,3.8-16.7-1.1-23.7c-4.4-6.3-10.7-9.7-17.9-11.8c-29.2-8.6-61.8,3.1-81.1,26.2
		c-12.2,14.7-19.8,36-16.2,55c-5.2,2.1-10.3,4.2-15.5,6.3c-0.5-2.3-1.1-4.5-1.8-6.7c-2.1-7-4.6-14-6.8-21c-1-3.2-1.8-6.5-3.2-9.6
		c-1.7-3.7-2.7-7.5-3.7-11.4c-0.6-2.2-4.4-0.9-4.1,1.1c0.6,3.9,1.3,7.6,1.3,11.6c0.1,4,0.5,7.8,0.9,11.8c0.6,7.9,0.6,15.8,0.8,23.7
		c0.1,2.5,0.1,5,0.2,7.5c-19.1,8.4-37.7,17.6-55.3,29c-21.4,13.8-47.5,34.6-38.5,63.4c3.6,11.5,12.8,21.1,23.7,26
		c11.5,5.2,25,5.1,36.9,1.5c-1.5,1.4-3,2.8-4.4,4.2c-2.7,2.6-5.5,7.1-2,10.3c3.2,3,9.2,1.6,12.2-1c6.7-5.8,13.6-11.3,20.7-16.5
		c3.6-2.7,7.3-5.3,11-7.8c0.8-0.6,1.7-1.1,2.5-1.7c0.3-0.2,1.3-0.8,1.5-1c1.8-1.1,3.6-2.2,5.4-3.3c15.1-9.1,30.7-17.2,46.7-24.4
		c4.1-1.9,8.2-3.6,12.4-5.3c0.9-0.4,1.9-0.7,2.8-1.1c1.4-0.6-0.8,0.3-0.9,0.3c0.5-0.3,1.3-0.5,1.9-0.7c2-0.8,4-1.5,6.1-2.3
		c8.3-3,16.7-5.7,25.1-8c8.6-2.4,17.4-4.5,26.2-6.2c1.7-0.3,3.5-0.7,5.2-1c0.5-0.1,1.8-0.3,2.3-0.4c1.2-0.2,2.5-0.4,3.7-0.6
		c4.8-0.7,9.6-1.3,14.4-1.8c9.5-1,19-1.6,28.5-1.8c4.7-0.1,9.4-0.1,14,0c2.3,0,4.7,0.1,7,0.2c0.4,0,0.8,0,1.2,0.1
		c1.4,0.1,2.9,0.2,4.3,0.2c19,1.2,37.9,4,56.4,8.4c4.7,1.1,9.4,2.3,14.1,3.7c0.5,0.1,1.8,0.5,1.9,0.5c0.8,0.2,1.6,0.5,2.4,0.7
		c2.4,0.7,4.8,1.5,7.2,2.3c9.1,3,17.8,6.8,26.8,10c6,2.1,12.3,3.7,18.7,3c6.9-0.7,12.9-3.4,18.6-7.1c8-5.2,13.6-13.5,18.3-21.6
		c17.5-30.4,30.5-62.7,41.8-95.8c4-3.9,7.6-8.1,10-13C-171.2,131.7-171.1,122.3-180,117.7z M-250.6,171.2
		C-252,171-251,171.1-250.6,171.2L-250.6,171.2z M-486.9,141.3c0.2-0.2,0.4-0.4,0.6-0.5C-486.6,141.1-486.9,141.3-486.9,141.3z
		 M-491,125.9c-0.2-0.1-0.5-0.1-0.9-0.2C-491.7,125.7-491.3,125.8-491,125.9z M-501.6,124.1c-0.5,0-0.8,0-1.1-0.1
		C-502.2,124.1-501.7,124.1-501.6,124.1z M-547.3,165.7c0.1-1.4,0.3-2.8,0.5-4.3c0.2-1.4,0.5-2.8,0.9-4.2c0.2-0.7,0.4-1.5,0.6-2.2
		c0.1-0.2,0.3-0.9,0.4-1.5c0.7-2.4,2-4.8,3.2-7c0.6-1.2,1.4-2.4,2.1-3.6c0,0,0,0,0-0.1c0.5-0.7,1-1.4,1.5-2.1
		c0.9-1.2,1.9-2.4,2.9-3.5c0.4-0.5,0.8-0.9,1.2-1.3c1.7-1.8-0.5,0.3-0.6,0.5c0.5-1,2.5-2.3,3.4-3c1.2-1,2.4-1.8,3.7-2.7
		c0,0,0.1-0.1,0.1-0.1c0.5-0.3,0.9-0.6,1.4-0.8c1.4-0.8,2.9-1.6,4.4-2.2c0.1,0,0.2-0.1,0.3-0.1c0.1-0.1,0.4-0.2,0.7-0.3
		c0.2-0.1,0.3-0.1,0.5-0.2c0.1,0,0.2-0.1,0.3-0.1c-0.1,0-0.1,0.1-0.2,0.1c1.7-0.6,3.3-1.1,5.1-1.5c1-0.2,2.1-0.6,3.1-0.8
		c0.4,0,0.9,0,1.1,0c0.7-0.1,1.3-0.1,2-0.2c1.6-0.1,3.3-0.2,4.9-0.2c0.1,0,0.5,0,0.8,0c0.1,0,0.2,0,0.3,0c0.5,0,1,0.1,1.5,0.1
		c3,0.3,5.9,0.7,8.8,1.4c0.3,0.1,0.6,0.2,1,0.2c0.2,0,0.3,0.1,0.4,0.1c0.3,0.1,0.6,0.2,0.7,0.3c1.4,0.5,2.6,1.2,3.9,1.8
		c0,0,0.1,0,0.1,0.1c0.1,0.1,0.1,0.1,0.2,0.2c0.4,0.4,0.9,0.8,1.3,1.1c0.2,0.2,0.3,0.3,0.4,0.4c0.3,0.5,0.5,1.1,0.8,1.5
		c0,0.1,0.1,0.2,0.1,0.2c0-0.1,0-0.2-0.1-0.4c0,0.2,0.1,0.3,0.1,0.4c0.2,0.4,0.2,0.9,0.1,0.5c0.1,0.3,0.1,0.6,0.1,0.9
		c0,0.4-0.1,1.7-0.1,1.8c-0.1,0.6-0.2,1.1-0.3,1.7c0,0.1,0,0.2,0,0.3c-0.2,0.4-0.5,1-0.6,1.2c0,0.1-0.1,0.2-0.1,0.3c0,0,0,0-0.1,0.1
		c-0.4,0.5-0.8,1-1.2,1.5c0,0-0.3,0.4-0.6,0.7c-0.3,0.3-0.6,0.6-0.9,0.8c-1.3,1.1-2.6,2.1-3.9,3.1c-0.7,0.5-6.9,5.3-7.3,5
		c0.5-0.4,1.1-0.7,1.6-1.1c-0.6,0.3-1.1,0.7-1.7,1c-0.6,0.3-1.1,0.7-1.7,1c-1.5,0.9-3.1,1.9-4.6,2.8c-5.5,3.2-11.1,6.2-16.8,9.1
		c-8.2,4.1-16.6,7.9-25.1,11.5c0-0.2-0.1-0.4-0.1-0.6c-0.3-1.5-0.5-3.1-0.5-4.7C-547.3,167.6-547.3,166.7-547.3,165.7
		C-547.3,165.8-547.3,165.7-547.3,165.7z M-547.3,165.9C-547.3,166.4-547.4,167.5-547.3,165.9L-547.3,165.9z M-676.8,271.9
		C-676.9,271.1-676.8,271.5-676.8,271.9L-676.8,271.9z M-676,279C-675.8,279.5-675.7,280.3-676,279L-676,279z M-646.7,298.1
		c0.5-0.1,1.2-0.3,1.2-0.2C-645.6,297.9-646.1,298-646.7,298.1z M-607.4,235.3c-1.1,7-2.3,14.2-4.2,21c-0.4,1.5-0.8,2.9-1.3,4.4
		c-0.2,0.8-0.5,1.6-0.8,2.4c0,0.1-0.2,0.4-0.2,0.7c-0.2,0.6-0.4,1.2-0.6,1.8c-0.3,0.7-0.6,1.5-0.9,2.2c-0.6,1.5-1.3,3.1-2,4.6
		c-1.4,2.9-2.8,6-4.7,8.6c-0.5,0.7-1.2,1.5-1.4,1.8c-1.1,1.4-2.3,2.8-3.5,4.1c-0.5,0.6-1,1.1-1.6,1.7c-0.5,0.5-0.7,0.7-0.7,0.8
		c-0.8,0.7-1.9,1.4-2.1,1.6c-1,0.8-2,1.5-3,2.2c-0.9,0.5-1.8,1-2.7,1.5c-1.1,0.5-2.1,1-3.2,1.5c-0.6,0.2-1.1,0.4-1.7,0.6
		c-1.5,0.4-2.9,0.8-4.4,1.1c-0.2,0-0.3,0.1-0.5,0.1c-0.8,0.1-1.7,0.1-1.9,0.1c-1,0.1-2.8-0.2-3.9,0c-0.1,0-0.1,0-0.2,0
		c-0.8-0.1-1.5-0.2-2.3-0.3c-0.6-0.1-1.2-0.2-1.7-0.3c-0.2,0-1.9-0.6-1.6-0.5c-0.2-0.1-0.4-0.2-0.4-0.2c-0.8-0.3-1.6-0.7-2.3-1
		c-1-0.5-2-1-3-1.6c0.2,0.1-1.8-1.3-2.2-1.7c-1-0.8-1.9-1.7-2.8-2.6c-0.6-0.6-1.2-1.2-1.7-1.9c-0.2-0.2-0.8-1.1-1-1.3
		c-1.2-1.8-2.3-3.7-3.2-5.8c-0.3-0.7-0.6-1.4-0.8-2.2c0,0,0,0,0,0c-0.3-1.5-0.6-2.9-0.7-4.5c-0.1-0.7-0.1-1.4-0.1-2.1c0,0,0,0,0-0.1
		c0.2-1.4,0.4-2.7,0.7-4.1c0.1-0.3,0.2-0.6,0.2-0.9c-0.1,0.5,0.5-1.3,0.6-1.6c0.6-1.4,1.4-2.7,2.1-4c0,0,0,0,0-0.1
		c0,0,0.1-0.1,0.1-0.1c0.5-0.6,0.9-1.2,1.4-1.8c1-1.2,2-2.4,3-3.5c0.2-0.2,0.4-0.5,0.7-0.8c0.1-0.1,0.2-0.2,0.4-0.3
		c1.4-1.2,2.8-2.5,4.3-3.7c2.2-1.8,4.6-3.5,6.9-5.1c1.3-0.9,2.7-1.9,4-2.8c0.5-0.4,1.1-0.7,1.6-1.1c0.3-0.2,0.6-0.4,0.8-0.5
		c5.4-3.3,10.9-6.5,16.5-9.5c8.9-4.7,18.1-8.9,27.4-12.9C-606.2,224.9-606.6,230.1-607.4,235.3z M-260.5,253.7
		C-260.5,253.7-260.5,253.7-260.5,253.7C-260.5,253.7-260.5,253.7-260.5,253.7C-260.5,253.7-260.5,253.7-260.5,253.7z M-260.3,253.8
		C-260.3,253.8-260.3,253.8-260.3,253.8c0,0-0.1,0-0.1,0C-260.4,253.7-260.4,253.7-260.3,253.8
		C-260.3,253.7-260.3,253.7-260.3,253.8C-260.3,253.7-260.3,253.7-260.3,253.8z"/>
	<path class="st0" d="M-589.3,279.9c0.2-0.1,0.4-0.3,0.6-0.4C-589.3,279.9-590.7,280.8-589.3,279.9z"/>
</g>
</svg>
