<?xml version="1.0" encoding="utf-8"?>
<!-- Generator: Adobe Illustrator 25.4.1, SVG Export Plug-In . SVG Version: 6.00 Build 0)  -->
<svg version="1.1" id="Layer_1" xmlns="http://www.w3.org/2000/svg" xmlns:xlink="http://www.w3.org/1999/xlink" x="0px" y="0px"
	 viewBox="0 0 841.9 363.7" style="enable-background:new 0 0 841.9 363.7;" xml:space="preserve">
<style type="text/css">
	.st0{fill:#ECEDED;}
</style>
<g>
	<path class="st0" d="M1159.2,187.3c2.3-3.8,4.7-7.6,7.2-11.3c0.1-0.1,0.1-0.2,0.2-0.3c0.6-0.9,1.2-1.8,1.8-2.7
		c1.5-2.2,3-4.4,4.6-6.6c5.4-7.6,11.1-15.1,17.1-22.4c5.8-7.1,11.9-14,18.2-20.7c2.9-3.1,5.9-6.2,8.9-9.2c1-1,1.9-1.9,2.9-2.8
		c2.2-2.2,0.1-0.1-0.6,0.5c1.7-1.9,3.8-3.6,5.7-5.3c13.8-12.8,28.4-24.6,43.7-35.4c4.2-3,8.5-5.8,12.8-8.7c0.2-0.1,0.4-0.2,0.6-0.4
		c-4.2,2.7-3.5,2.2,2.3-1.5c0,0,0.1-0.1,0.1-0.1c2.1-1.3,4.2-2.6,6.3-3.9c9.2-5.6,18.4-11,27.7-16.4c4.4-2.6,8.6-5.8,10.9-10.5
		c1.7-3.4,2.6-8.6,0.5-12.2c-5.4-9.1-16.9-7.6-25.1-4c-19.3,8.4-37.3,19.8-54.4,32.1c-15.8,11.3-30.7,23.6-44.8,37
		c-14.1,13.4-27.4,27.6-39.7,42.6c0.1-23.5-4.4-48.3-25.8-59.5c-16.4-8.7-36.9-4.9-52.9,2.7c-14.3,6.9-27.2,17.6-38.7,28.6
		c-22.8,21.8-41.9,47.8-53.5,77.2c-13.9,35.2-18.6,74.6-8.5,111.4c4.1,15.2,27.6,7.5,30.1-5.3c0.7-3.7,0.2-6.9-0.2-10.5
		c-0.4-2.8,0.3-5.5,0.7-8.3c0.9-6.4,1.7-12.7,2.6-19.1c1.8-12.5,3.7-25,5.2-37.6c1.2-9.9,1.8-19.8,2.6-29.8c0.3-0.8,0.7-1.5,1-2.3
		c2.8-6.3,5.9-12.4,9.4-18.4c1.6-2.8,3.4-5.5,5-8.2c0,0,0-0.1,0.1-0.1c0.4-0.5,0.7-1.1,1.1-1.6c1-1.5,2.1-3,3.2-4.5
		c4.1-5.6,8.4-10.9,13-16c2.1-2.4,4.4-4.7,6.6-7c0.4-0.4,2.3-2.2,2.7-2.6c0,0,0,0,0,0c0.8-0.8,1.7-1.6,2.5-2.3
		c4.9-4.5,10.1-8.8,15.5-12.8c1.5-1.1,3.1-2.2,4.6-3.3c0.4-0.3,2.4-1.4,0.4-0.3c-2.2,1.2,0.5-0.3,1-0.6c1.4-0.8,2.9-1.6,4.4-2.4
		c0.6-0.3,1.3-0.6,1.9-0.9c0.6-0.3,1.3-0.6,1.9-0.9c-0.6,0.2-1.2,0.5-1.9,0.7c1.2-0.8,3.2-1.1,4.7-1.4c0.1,0,0.6-0.2,1-0.3
		c0.1,0,0.2,0,0.3,0c1.4-0.1,2.9-0.2,4.3-0.2c0,0,0,0,0,0c0.8,0.2,1.7,0.2,2.6,0.4c0.2,0,1,0.2,1.5,0.3c0.2,0.1,0.3,0.1,0.4,0.1
		c1.3,0.5,2.7,1.1,3.9,1.8c-0.2-0.1,1.2,0.9,1.7,1.3c0.6,0.5,1.2,1.1,1.7,1.6c0.1,0.2,0.9,1.1,1.3,1.5c0.1,0.1,0.2,0.2,0.2,0.2
		c0.4,0.7,0.8,1.3,1.2,2c0.7,1.2,1.3,2.5,1.9,3.8c0.6,1.3,1,2.6,1.5,4c-0.2-0.5-0.6-2.5,0,0.1c0.2,0.8,0.4,1.6,0.6,2.4
		c1.4,6.2,1.9,12.6,2.1,19c0.1,3.5,0.2,7,0.2,10.5c0,1.7,0,3.5-0.1,5.2c0,0.7,0,1.5-0.1,2.2c0,0.4,0,0.8,0,1.1c0,0.1,0,0.3,0,0.5
		c-0.7,11.3-2.2,22.6-4.5,33.7c-12,19.8-25.6,42.9-22.5,66.6c0.9,6.7,7.9,10.1,14.2,9.5c7.5-0.7,15-4.9,18.6-11.8
		c9.3-17.9,16.5-37,21.4-56.6C1158.5,188.5,1158.8,187.9,1159.2,187.3z M1105.7,89.8c0.4-0.1,0.8-0.2,0.8-0.1
		C1106.6,89.7,1106.2,89.7,1105.7,89.8z"/>
	<path class="st0" d="M1254.7,234.2C1254.7,234.2,1254.7,234.2,1254.7,234.2c0.6-0.3,1.2-0.5,1.8-0.7
		C1257.6,232.8,1257.4,232.2,1254.7,234.2z"/>
	<path class="st0" d="M1254.7,201C1254.7,201,1254.7,201,1254.7,201c-0.1,0-0.1,0-0.2,0C1254.6,201,1254.7,201,1254.7,201
		C1254.7,201,1254.7,201,1254.7,201z"/>
	<path class="st0" d="M1382.2,154.7c-0.3,0-0.7,0-1,0C1381.4,154.7,1381.7,154.7,1382.2,154.7
		C1382.2,154.7,1382.2,154.7,1382.2,154.7z"/>
	<path class="st0" d="M1487,182.8c18,5.1,35.8,11.1,53.1,17.8c11.7,4.5,23.1,9.8,34.6,14.8c5.5,2.4,11,4.9,16.5,7.5
		c1.4,0.7,2.9,1.3,4.3,2c0.7,0.4,0.7,0.3,2,1.4c3.2,2.9,6,5.2,10.3,6.5c8.9,2.7,17.9,0.7,24.7-5.9c4.6-4.5,8.3-12.5,4.3-18.3
		c5.5,1.1,11.1,1.8,16.8,2.1c18.1,0.8,35.9-1.7,52.4-9.6c27.8-13.2,50.9-44,42.3-76c-4-14.8-13.6-26.6-27.6-33.1
		c-13-6.1-28.7-7.4-42.8-5.2c-31.5,4.8-60.5,22.5-78,49.3c-9.2,14.1-13.5,30.9-13.1,47.7c0.1,2.2,0.2,4.4,0.5,6.5
		c-10.6-3.5-21.4-6.6-32.1-9.9c-14.4-4.5-28.8-8.7-43.3-12.8c7.2-2.8,14.3-6,21.2-9.8c9.2-5,18.9-10.7,26.5-17.9
		c7.8-7.3,14.1-20.3,4.2-28.8c-7.6-6.5-18.7-5.5-27.7-3.7c-9.5,1.9-18.8,5.4-27.2,10.1c-8.3,4.6-16,10.4-22.8,17
		c-0.3-1.7-0.5-3.5-0.5-5.3c0.1-5.1,0.3-10.3,0.6-15.4c0-0.4-0.6-0.2-0.6,0c-0.6,4.5-1.2,8.9-2.1,13.3c-0.9,5-3,9.4-4.1,14.3
		c0,0.2-0.1,0.3-0.1,0.5c-4.9,5.9-9.1,12.3-12.4,19.3c-0.1,0.2-0.2,0.4-0.3,0.6c-3.3,2.9-5.2,7.2-4.3,10.7c-2.3,7-3.8,14.3-4.3,21.6
		c-0.8,12.3,0.9,23.6,5.1,35.3c2,5.6,10.6,4.9,14.8,3.3c5.4-2.1,10.2-6.8,10-13c-0.3-8.5-0.9-17-1-25.5
		C1486.8,190.4,1486.9,186.6,1487,182.8z M1710,164.2c0.2-0.3,0.9-1.5,0.9-1.4C1711,162.9,1710.6,163.5,1710,164.2z M1684.5,113.1
		C1683.6,113.1,1682.3,112.9,1684.5,113.1L1684.5,113.1z M1671.7,114.1C1671.5,114.1,1671.5,114.1,1671.7,114.1L1671.7,114.1z
		 M1621.7,168.3C1621.8,167.3,1621.8,167.8,1621.7,168.3L1621.7,168.3z M1621.7,168.8c0.1-1,0.2-2,0.3-3c0.3-2.7,0.8-5.4,1.5-8
		c0.3-1.4,0.8-2.8,1.2-4.2c0-0.1,0-0.1,0-0.2c0.2-0.5,0.4-1,0.6-1.4c1.1-2.7,2.4-5.3,3.8-7.8c0.6-1.1,1.2-2.1,1.9-3.2
		c0.2-0.3,0.3-0.5,0.3-0.6c0.3-0.4,0.7-0.8,0.8-1c1.6-2.2,3.3-4.2,5.1-6.2c0.3-0.3,0.6-0.7,0.9-1c1.1-0.5,2.7-2.6,3.5-3.3
		c2.1-1.7,4.2-3.4,6.4-5c0.3-0.2,0.6-0.4,0.9-0.6c0,0-0.1,0-0.1,0c0,0,0.1,0,0.1,0c0.2-0.1,0.4-0.3,0.6-0.4c0.8-0.6,1.1-0.5,1-0.3
		c0.8-0.5,1.5-1.1,2.1-1.4c2.4-1.3,4.9-2.4,7.3-3.5c0.2-0.1,0.3-0.2,0.4-0.2c0.1-0.1,0.3-0.1,0.5-0.2c1.6-0.6,3.2-1.1,4.8-1.6
		c1-0.3,7.2-1.3,7.6-1.9c0.4-0.1,0.8-0.1,1.2-0.2c1.4-0.2,2.8-0.3,4.3-0.4c1.4-0.1,2.8-0.2,4.3-0.2c0.5,0,1,0,1.6,0
		c2.8,0.2,5.5,0.6,8.2,1.2c0.6,0.1,1.2,0.3,1.7,0.4c0.1,0,0.1,0,0.1,0c1,0.4,2,0.7,3,1.1c1.3,0.5,2.5,1.1,3.7,1.7
		c0.8,0.4,4.1,2.7,2.1,1.1c2,1.6,4,3.1,5.7,5c0.3,0.4,0.7,0.7,1,1.1c0.9,1.3,1.7,2.6,2.4,4c0.6,1.2,1.2,2.5,1.7,3.8
		c0.2,0.5,0.6,1.9,0.6,2.1c0.6,2.7,1,5.4,1.1,8.1c0,0.3,0,1.7,0,2.4c0,0.5-0.1,1.2-0.1,1.4c-0.1,0.6-0.1,1.2-0.2,1.8
		c-0.4,2.5-1,5-1.7,7.4c0.1-0.5-0.7,1.8-1,2.5c-0.6,1.3-1.2,2.6-2,3.8c-0.3,0.5-0.6,1.1-0.9,1.6c-0.2,0.3-0.2,0.4-0.3,0.5
		c-0.9,1.1-2.1,2.3-2.2,2.5c-0.3,0.3-1,0.9-1.6,1.4c0.2-0.1,0.2,0.2-0.6,0.8c-0.1,0.1-0.2,0.2-0.4,0.3c-0.1,0.1-0.1,0.2-0.1,0.3
		c0-0.1,0-0.1,0.1-0.2c-0.4,0.3-0.7,0.6-1.1,0.9c-1.2,0.9-2.4,1.8-3.6,2.7c-0.3,0.2-0.6,0.4-0.8,0.5c-1.5,0.9-3,1.7-4.6,2.4
		c-0.6,0.3-1.2,0.5-1.8,0.8c-0.1,0-0.2,0.1-0.3,0.1c-2.9,1-5.7,2-8.6,2.7c-0.9,0.2-4.2,0.4-5,1c-0.6,0.1-1.3,0.2-1.9,0.3
		c-3.7,0.4-7.5,0.6-11.2,0.6c-0.6,0-1.2,0-1.8,0c1.8,0-1.2-0.1-1.7-0.1c-2.1-0.2-4.2-0.4-6.3-0.6c-3.9-0.5-7.8-1.2-11.7-1.8
		c-7.7-1.1-15.4-2.7-23-4.5c0-0.5-0.1-1.1-0.1-1.6C1621.7,171.4,1621.7,170.1,1621.7,168.8z M1544.8,126.3c-0.1,0-0.1,0-0.2,0
		C1544.4,126.1,1544.6,126.2,1544.8,126.3z M1539.3,126.1C1537.8,126.4,1538.7,126.2,1539.3,126.1L1539.3,126.1z M1502.6,146.9
		c0.6-0.6,1.1-1.3,1.7-1.9c0.1-0.1,0.6-0.6,0.9-1c0.5-0.4,1.9-1.7,1.7-1.6c0.8-0.7,1.6-1.4,2.4-2.1c1.3-1.1,2.7-2.1,4.1-3.1
		c0.9-0.6,1.7-1.2,2.6-1.8c-0.5,0.3-2,1.2,0.3-0.2c3.3-2,6.7-3.7,10.3-5.3c0.2-0.1,0.7-0.3,1-0.4c0.6-0.2,1.2-0.4,1.8-0.6
		c1.6-0.6,3.3-1.1,4.9-1.5c1.6-0.4,3.3-0.8,4.9-1.2c0.1,0,0.2,0,0.2,0c0.9-0.1,1.8-0.1,2.6-0.2c-0.3,0.1,1.1,0.2,2,0.3
		c0,0,0.7,0.2,0.9,0.4c-0.2-0.1-0.4-0.2-0.5-0.3c0.1,0,0.1,0,0.2,0c0.3,0.2,0.7,0.4,0.2,0.3c-0.6-0.2,0.1,0.8,0.3,0.4
		c-0.2,0.6-1,1.2-1.2,1.5c-6.2,5.6-12,8.5-19.6,12.5c-8.4,4.5-15.8,7.5-23.6,10.3c-0.9,0.3-1.8,0.6-2.7,0.9
		C1499.6,150.3,1501.1,148.6,1502.6,146.9z"/>
	<path class="st0" d="M1650.6,122.6c-0.6,0.4-1.1,0.7-1.6,0.8c0,0,0,0,0,0C1649.9,123.3,1650.5,122.9,1650.6,122.6z"/>
	<path class="st0" d="M1705.1,169.4C1705.1,169.4,1705.2,169.3,1705.1,169.4c0.2-0.4,0.6-0.8,1-1.2
		C1705.9,168.3,1705.3,168.7,1705.1,169.4z"/>
	<path class="st0" d="M1818,174.6C1818.1,174.6,1818.1,174.6,1818,174.6c0.8-0.2,1.6-0.3,2.4-0.4
		C1821.2,174.1,1819.5,174.3,1818,174.6z"/>
	<path class="st0" d="M1735.2,189.1c-3.8,3-8.1,8.3-8.9,13.3c-1.6,11.2,7.6,17.6,18.1,17c9.5-0.6,19.2-1.3,28.9-2.2
		c0.7,0.8,1.3,1.7,1.9,2.5c1.6,2.2,5.4,1.2,6.5-1.2c0.3-0.7,0.7-1.5,1.1-2.2c55.5-5.8,111.8-18.5,156.3-52.9
		c8.5-6.6,17.2-15.6,19.6-26.5c2.1-9.4-1.2-19.4-9-25.2c-7.4-5.5-16.1-7.8-25-9.5c-9.1-1.7-18.2-3.2-27.4-4.3
		c-19.4-2.4-38.9-3.4-58.4-3.1c-9.2,0.1-18.5,0.6-27.7,1.4c-10.3,0.9-20.9,1.7-30.3,6.3c-4.1,2-7.8,4.6-10.8,8
		c-0.5,0.6-1,1.2-1.5,1.8c-0.8,1.2-1.6,2.3-2.3,3.5c1.4-2.2,1.4-2.1-0.1,0.1c-2.8,4.3-4.8,9.1-5.6,14.2c-1.5,9.5-0.4,19.5,0.3,29
		c0.5,7.4,1.5,14.8,2.6,22.2c-3.8,0.4-7.6,0.7-11.3,1C1746.1,183,1739.9,185.4,1735.2,189.1z M1875.2,159.5c1-0.4,2-0.8,1.9-0.7
		C1876.6,159,1875.9,159.2,1875.2,159.5z M1918,139.2C1918,139.2,1918,139.2,1918,139.2C1918.3,139.4,1918.2,139.4,1918,139.2z
		 M1793.1,127.7C1794.1,127.4,1793.7,127.6,1793.1,127.7C1793.1,127.7,1793.1,127.7,1793.1,127.7z M1790.4,128.9
		c-0.2,0.1-0.3,0.1-0.4,0.1C1790.1,129,1790.2,128.9,1790.4,128.9z M1790.4,168.1c0.6-9.2,1-18.4,1.3-27.6c0-1.1,0.1-2.2,0.1-3.4
		c0,0,0-0.5,0-0.9c0.1-0.6,0.2-2.7,0.3-3.3c0.2-1.7,0.5-3.3,0.9-4.9c1.6-0.1,4-0.6,4.5-0.6c8.1-0.6,16.1-0.9,24.2-1
		c4,0,8.1,0,12.1,0.1c1.9,0,3.8,0.1,5.7,0.2c0.1,0,0.1,0,0.2,0c1.3,0.1,2.7,0.1,4,0.2c8.1,0.5,16.1,1.1,24.1,2.1
		c8.3,1,16.6,2.2,24.8,3.6c4,0.7,7.9,1.5,11.9,2.3c1.8,0.4,3.7,0.8,5.5,1.2c0.6,0.1,1.2,0.3,1.9,0.4c0,0,0,0,0,0
		c1.2,0.4,2.5,0.9,3.7,1.4c0.1,0.1,0.2,0.1,0.4,0.2c-1.1,0.8-2.1,1.5-3.2,2.2c-0.3,0.2-0.5,0.3-0.7,0.5c-0.4,0.2-0.8,0.5-1.2,0.7
		c0,0-0.2,0.1-0.6,0.3c-0.8,0.5-1.6,1-2.4,1.5c-3.2,1.9-6.4,3.7-9.7,5.5c-6.1,3.2-12.4,6.2-18.8,8.8c-1.5,0.6-2.9,1.2-4.4,1.8
		c-0.2,0.1-0.4,0.1-0.5,0.2c-3.5,1.3-7,2.5-10.5,3.7c-6.6,2.2-13.4,4.1-20.1,5.8c-7.7,1.9-15.5,3.6-23.4,5.1c-0.1,0-0.1,0-0.2,0
		c-0.2,0.1-0.7,0.1-1.5,0.3c-0.2,0-0.5,0.1-0.7,0.1c-0.1,0-0.2,0-0.3,0.1c0.1,0,0.2,0,0.2-0.1c-1.8,0.3-3.6,0.6-5.5,0.9
		c-4,0.6-7.9,1.2-11.9,1.7c-3.6,0.5-7.3,0.9-10.9,1.4C1790,175.1,1790.1,171.6,1790.4,168.1z"/>
	<path class="st0" d="M2080.5,124.6c-1.3-7.4-8.7-9.7-15.4-8.5c-6.4,1.1-16.1,6.6-16.6,14.1c-0.4,6.6-1.3,13.2-3.1,19.6
		c-0.1,0.5-1.2,3.8-1.1,3.5c-0.5,1.2-1,2.4-1.5,3.6c-1.2,2.7-2.6,5.2-4.1,7.7c0-0.1-1.8,2.5-2.1,2.9c-0.9,1.2-1.9,2.4-2.9,3.5
		c-0.2,0.2-0.6,0.7-1,1c0,0-0.1,0.1-0.1,0.1c-0.6,0.5-1.2,1.1-1.9,1.6c-0.2,0.1-0.7,0.5-1.1,0.9c-0.1,0.1-0.2,0.2-0.3,0.2
		c-0.7,0.4-1.4,0.8-2.2,1.2c-0.4,0.2-1.7,0.8-2.4,1.1c-0.8,0.3-2.5,0.8-2.9,0.9c-0.8,0.2-1.6,0.4-2.4,0.6c-0.1,0-0.2,0-0.3,0.1
		c-0.1,0-0.1,0-0.2,0c-1.4,0.1-2.9,0.3-4.3,0.3c-0.8,0-1.6,0.1-2.5,0.1c0,0-0.3,0-0.6,0c-0.5-0.1-1.3-0.1-1.5-0.2
		c-0.6-0.1-1.2-0.2-1.8-0.3c-0.6-0.1-1.3-0.3-1.9-0.4c-0.1,0-1.4-0.4-1.7-0.6c-5.2-2-9-4.8-12.7-9.1c-7.3-8.5-10.3-21-9.7-32.1
		c0.9-16.6,7.9-32.1,15.8-46.4c2.1-3.8-4.4-3.7-6-1c-9.2,15.3-19.5,30.2-24.2,47.6c-3.7,14-3.2,30,3.4,43
		c7.6,15.1,23.2,23.2,39.7,23.3c15.1,0.1,29.5-6,41.1-15.4c-0.6,5.9-1.5,11.9-3.1,18.2c-0.6,2.5-1.3,5.1-2.1,7.6
		c-0.3,1-0.6,2.1-1,3.1c-0.1,0.3-0.3,0.8-0.4,1.2c-1.8,4.6-3.8,9-6.2,13.3c-0.6,1.1-1.3,2.2-2,3.3c-0.1,0.2-0.3,0.6-0.5,0.9
		c0-0.1,0.1-0.2,0.1-0.3c-0.8,2.1-3.2,4.4-4.7,6.1c-0.7,0.8-3.2,4.6-4.3,4.8c0.6-0.5,1.1-1.1,1.7-1.6c-0.6,0.6-1.2,1.2-1.9,1.7
		c-1.3,1.1-2.6,2.2-3.9,3.3c-1,0.8-2.1,1.5-3.1,2.3c-3.1,2.3,0.9-0.5,1-0.6c-0.7,1.5-5.7,3.2-7.2,3.9c-1.1,0.5-2.3,1-3.5,1.6
		c-0.1,0-0.3,0.1-0.4,0.1c-2.6,0.8-5.2,1.7-7.8,2.4c-2.2,0.6-4.7,1.4-7,1.7c-0.6,0-1.3,0.1-1.6,0.1c-0.9,0.1-1.8,0.2-2.8,0.4
		c-5.8,0.7-11.6,1.1-17.4,1.2c-5.3,0.1-10.7,0-16-0.1c-0.3,0-0.5,0-0.7,0c0,0,0,0-0.1,0c-1.3-0.1-2.6-0.1-3.9-0.2
		c-3.6-0.2-7.3-0.4-10.9-0.7c-12-0.9-24-2.2-35.9-3.8c-49-6.2-97.4-16.4-146.6-21.3c-47.9-4.8-98-5.2-144.5,9.3
		c-23.1,7.2-45.3,17.8-64.3,32.9c-18.3,14.6-35.4,33.8-37.6,58.1c-1.1,12.7,16.9,11.7,22.4,3.6c1.4-2.1,2.9-4,4.4-6
		c0.7-1,4.5-6.1,2.2-3c0.7-1,1.4-2,2.1-3c2.9-4,6.3-7.5,9.4-11.3c2.8-3.5,5.7-6.7,8.7-9.9c0,0,0,0,0.1-0.1c0.9-0.8,1.7-1.6,2.6-2.4
		c2-1.7,4-3.4,6.1-5c1.8-1.4,3.6-2.7,5.4-4c1-0.7,2-1.4,3-2c4.2-2.5,8.3-4.9,12.7-7c4.1-2,8.2-4,12.5-5.7c0,0,0.1,0,0.1,0
		c-0.1,0-0.3,0.1-0.5,0.1c0.3-0.1,0.6-0.2,0.8-0.3c-0.1,0-0.3,0.1-0.4,0.1c4.5-1.3,2-0.7,0.5-0.2c0.9-0.3,1.7-0.7,2.6-1
		c2.7-1,5.5-1.9,8.3-2.8c4.3-1.4,8.7-2.6,13.2-3.7c2.4-0.6,4.8-1.1,7.2-1.6c0.8-0.2,1.6-0.3,2.4-0.5c0.4-0.1,1.8-0.3,2.9-0.6
		c12-2.4,24.5-3.4,36.7-4c11.4-0.6,22.7-0.6,34.1-0.2c0.7,0,2.6,0.1,2.9,0.1c1.5,0.1,3.1,0.2,4.6,0.3c2.8,0.2,5.7,0.4,8.5,0.6
		c6.5,0.5,12.9,1.1,19.4,1.8c49.1,5.3,97.5,16,146.6,21.5c24.7,2.8,49.8,4.9,74.6,3.9c25.5-1.1,50.6-7.1,71.9-21.7
		c21.4-14.6,36.1-38.8,42.1-63.8C2090.4,180.6,2085.3,152.2,2080.5,124.6z M2030.1,174.3C2030.5,173.9,2030.4,174.1,2030.1,174.3
		L2030.1,174.3z"/>
	<path class="st0" d="M1445.9,201.8c-0.1-0.5-0.2-0.9-0.3-1.4c5.3-11.2,6.8-24.3,3.3-36.2c-4-13.4-14.5-23.4-26.6-29.9
		c-25.9-13.7-58.1-8.5-81.8,7.2c-14.3,9.6-25.1,24.4-30.2,40.9c-4.9,2.1-9.8,6.1-10.7,11.5c-0.2,1.3-0.5,2.6-0.8,3.9
		c0,0.2-0.1,0.4-0.1,0.5c-0.1,0.1-0.1,0.2-0.2,0.4c-0.1,0.3-0.4,0.7-0.6,1c-0.5-3.5-1.4-6.9-2.8-10.3c-0.8-1.9-1.8-3.7-2.9-5.4
		c-0.8-19.5-2.2-39-6.3-58.1c-3.6-16.8-16.8-31.2-35.2-26.9c-15.7,3.6-25.6,19.7-31.1,33.7c-6.1,15.5-7.9,31.4-3.9,47.6
		c-12.5,6.3-24.7,15.2-33.6,26.1c-8.5,10.4-15.9,25.3-12.3,39.1c3.8,14.5,14.9,22.2,28.8,26.2c11.4,3.2,23.8,2.9,35.4,1.1
		c15.2-2.4,29.7-6.7,43.6-13.3c14.6-6.9,29.5-16.5,40.1-28.8c0.7-0.8,1.3-1.6,2-2.4c2.1,0.2,4.3,0,6.5-0.7c2.3-0.7,5-2,7.5-3.8
		c0.4,0.7,0.8,1.4,1.2,2.1c6.7,10.7,18.3,16.3,30.4,18.5c14.4,2.6,29.4-1.6,42.4-7.7c2.7-1.3,5.4-2.7,7.9-4.2
		c-0.3,5.8-0.5,11.6-0.7,17.6c-0.1,3.8-0.2,7.7-0.4,11.5c0,1.1-0.1,2.2-0.1,3.3c0,0,0,0.1,0,0.4c-3.1-0.9-6.2-1.7-9.3-2.4
		c-7.1-1.6-14.2-2.9-21.4-3.9c-58.2-8.1-117.9,6.2-168.5,35.3c-13.8,7.9-27.4,16.5-39.6,26.7c-11.9,10-22.7,21.2-32,33.6
		c-2.1,2.8-2.9,6.7,0.4,8.9c3.5,2.2,8,0.8,11.1-1.4c11.4-8.3,23-16.4,34.6-24.5c5.6-4,11.3-7.8,17-11.7c1.4-0.9,2.7-1.8,4.1-2.7
		c0.3-0.2,0.6-0.4,0.9-0.6c0.3-0.2,0.8-0.5,1-0.6c3-1.8,6-3.7,9.1-5.4c5.9-3.4,12-6.5,18.1-9.5c3-1.4,6-2.8,9-4.1
		c1.7-0.8,3.5-1.5,5.2-2.2c0.7-0.3,3.8-1.5,3.7-1.4c12.8-4.7,25.8-8.7,39.2-11.4c1-0.2,2-0.4,2.9-0.6c0,0,0.4-0.1,0.7-0.1
		c0.6-0.1,1.6-0.3,1.8-0.3c0.7-0.1,1.5-0.2,2.2-0.3c3.7-0.6,7.4-1,11.1-1.4c7.2-0.7,14.4-1.1,21.6-1.2c2,0,4,0,6,0
		c0.7,0,1.5,0,2.2,0.1c0.2,0,1.4,0.1,1.9,0.1c0.4,0,0.7,0,0.8,0c1,0.1,2,0.1,3,0.2c2,0.1,4,0.3,5.9,0.5c7.2,0.7,14.3,1.8,21.3,3.3
		c1.7,0.4,3.4,0.7,5.1,1.2c1,0.2,1.9,0.5,2.9,0.8c0,0,0.4,0.1,0.8,0.2c0.5,0.2,1.6,0.5,1.8,0.5c0.7,0.2,1.4,0.4,2.1,0.7
		c1.9,0.6,3.7,1.2,5.6,1.9c7.2,2.6,14.3,7.3,22,8.2c14.2,1.6,29.3-7.9,32.2-22.3c1.6-8,0.9-16.7,0.8-24.8
		C1451.3,236.8,1449.3,219.3,1445.9,201.8z M1210.6,221c-0.3,0.4-0.5,0.8-0.8,1.2C1210.1,221.7,1210.4,221.2,1210.6,221z
		 M1210.3,236.7c0.4,0.3,0.7,0.5,1,0.7C1210.8,237.1,1210.3,236.9,1210.3,236.7z M1261.4,231.3c-1.3,0.6-2.5,1.2-3.8,1.7
		c-0.4,0.2-0.8,0.3-1.2,0.5c-0.3,0.2-0.6,0.3-1.1,0.5c-0.2,0.1-0.4,0.1-0.6,0.2c-0.1,0.1-0.2,0.1-0.3,0.2c0.1-0.1,0.2-0.1,0.3-0.2
		c-2.4,0.9-4.9,1.6-7.3,2.3c-2.5,0.7-5,1.3-7.5,1.9c-0.6,0.1-1.3,0.2-2,0.4c1.6-0.4,3.3-1.3-0.6,0.1c0.1,0,0.2,0,0.2-0.1
		c-0.1,0-0.3,0.1-0.4,0.1c0.1,0,0.1,0,0.2-0.1c-0.1,0-0.2,0-0.3,0.1c-4.7,0.7-9.4,1-14.1,1.3c0,0,0,0,0,0c-0.7-0.1-1.3-0.1-2-0.2
		c-1.8-0.2-3.6-0.6-5.4-1c-0.1,0-0.1-0.1-0.2-0.1c-0.7-0.3-1.4-0.5-2-0.8c-0.1-0.1-0.8-0.3-1.4-0.6c-0.1-0.1-0.3-0.2-0.6-0.4
		c-0.3-0.2-0.5-0.5-0.8-0.7c-0.2-0.1-1-0.8-1.6-1.4c-0.1-0.2-0.1-0.4-0.3-0.7c-0.2-0.4-0.4-0.9-0.6-1.3c-0.1-0.2-0.6-1.6-0.7-2.2
		c-0.1-0.6-0.1-1.1-0.1-1.7c0.1,2.4,0.2-0.8,0.4-1.6c0.1-0.5,0.3-1.5,0.5-2.1c0.5-0.8,1.1-1.8,1.3-2.2c0.1-0.2,0.3-0.5,0.5-0.9
		c0.4-0.6,0.9-1.2,1.4-1.8c0.3-0.4,1.6-2.1,2.4-3.1c3.2-3.4,7.7-5.4,11.1-8.5c0.2-0.1,0.4-0.2,0.6-0.4c0.8-0.5,1.6-0.9,2.5-1.4
		c2.3-1.2,4.6-2.3,7-3.4c0.2-0.1,0.4-0.2,0.6-0.3c0.5-0.2,0.8-0.3,1.1-0.4c0.5-0.1,0.9-0.2,1.2-0.3c2.6-0.8,5.2-1.4,7.8-2.1
		c1.4-0.1,2.8-0.3,4.3-0.4c0.2,0,0.4,0,0.7,0c2,0,1.7,0-0.7-0.1c1.1-0.4,3.3,0.4,4.4,0.6c0.2,0,0.3,0.1,0.5,0.1
		c-0.1,0-0.2-0.1-0.4-0.1c0.1,0,0.3,0,0.5,0.1c1.5,0.4,1.5,0.4,0,0c0.6,0.2,1.5,0.7,2,1.1c0.6,0.5,1.6,1.3,1.6,1.3
		c0.4,0.3,0.7,0.7,1,1.1c0.1,0.1,0.1,0.2,0.3,0.4c0.4,1,1.1,1.9,1.5,2.8c0.4,0.7,0.7,1.5,1,2.3c0.2,0.8,0.3,1.6,0.5,2.4
		C1262.3,218.8,1261.9,225.1,1261.4,231.3z M1234.3,203.9c0.3-0.4,1.2-0.6,2-0.8C1235.9,203.3,1235.3,203.5,1234.3,203.9z
		 M1262.1,209.6c0,0,0,0.1,0,0.1C1261.8,208.7,1261.8,208.7,1262.1,209.6z M1258.8,169c-11.3-0.2-22.9,2.9-33.6,7.3
		c0.8-11.4,3.5-23,7.8-33.5c2.3-5.6,5.1-11.1,8.6-16c1.7-2.4,3.5-4.8,5.6-6.8c0.5-0.5,1.1-1,1.9-1.6c0.6-0.4,0.7-0.5,1.1-0.7
		c0,0,0.1,0,0.1,0c0.1,0,0.1,0.1,0.2,0.1c0.6,0.2,1.4,0.4,2.5,1.2c1.4,0.9,2.9,2.5,3.8,4.1c3,5.1,3.3,12.2,3.9,18
		c1.1,9.3,1.8,18.8,2.2,28.2C1261.5,169.1,1260.2,169,1258.8,169z M1374.1,155c-0.6,0.1-1.1,0.2-1.7,0.3
		C1373.1,155.1,1374,154.9,1374.1,155z M1417.1,195.3c-0.1,0.2-0.1,0.4-0.1,0.6c-0.1,0.1-0.1,0.3-0.2,0.5c-0.4,1.1-0.9,2.2-1.5,3.2
		c-0.5,0.9-0.9,1.8-1.5,2.6c0.3-0.5-1.3,1.9-1.5,2.2c-1.1,1.5-2.4,2.8-3.6,4.2c0.5-0.5-1.6,1.6-1.8,1.8c-1.3,1.2-2.7,2.4-4.1,3.5
		c-1.4,1.1-2.9,2.2-4.5,3.2c-0.3,0.1-2.2,1.3-2.4,1.4c-1.2,0.7-2.5,1.3-3.7,2c-1.1,0.5-2.2,1-3.3,1.5c-0.3,0.1-0.9,0.4-1.1,0.4
		c-3,1-6.1,1.9-9.2,2.5c-0.8,0.1-3.7,0.7-4.4,0.8c0.2,0-2.6,0.2-2.6,0.3c-3,0.3-5.8,0.2-8.8-0.3c-5.3-0.9-10.1-3.2-14.7-5.9
		c-2.9-1.7-5.4-3.7-7.6-6c0.1-1,0.1-2-0.1-3.1c-0.5-2.5-0.9-4.9-1-7.4c-0.1-1.3-0.1-2.5-0.2-3.8c0,0.1,0-1.2,0-2
		c0.1-0.7,0.2-2.2,0.2-2.1c0.1-1.2,0.3-2.5,0.5-3.7c0.5-2.7,1.1-5.3,1.9-8c0.2-0.6,0.4-1.2,0.6-1.8c0.1-0.1,0.8-2.1,1-2.3
		c1-2.3,2.1-4.5,3.4-6.7c0.4-0.7,0.9-1.4,1.3-2.1c-2,3.3,0.2-0.1,0.6-0.7c0.8-1,1.5-2,2.3-2.9c0.1-0.1,0.7-0.8,1.3-1.5
		c0.4-0.3,1.6-1.5,1.7-1.6c1-0.8,1.9-1.6,3-2.4c0.3-0.2,0.7-0.6,1-0.9c0.8-0.5,1.8-0.9,2.5-1.3c1.4-0.7,3-1.8,4.5-2.3
		c0.6-0.1,1.2-0.2,1.6-0.4c1.6-0.5,3.3-1,4.9-1.3c0.1,0,0.4-0.1,0.7-0.2c0.8-0.1,1.6-0.2,2.5-0.3c2.1-0.2,4.2-0.2,6.3-0.3
		c-1.1,0,0.3-0.1,1,0c0,0,0,0,0,0c0.1,0,0.2,0,0.3,0c-0.1,0-0.2,0-0.3,0c1.3,0.1,2.5,0.2,3.7,0.4c1.3,0.2,2.5,0.4,3.8,0.6
		c0.5,0.1,4.2,1,3.5,0.8c3.8,1.2,7.5,2.9,11,4.9c0.1,0.1,1.2,0.8,1.6,1.1c0.9,0.6,1.7,1.3,2.5,2c1,0.8,1.9,1.7,2.8,2.6
		c0.3,0.3,2.6,3.1,2.3,2.6c2.4,3.5,3.9,7.1,4.6,10.2C1417.7,184.9,1417.4,190.1,1417.1,195.3z M1422.4,267.7
		c0.2,0.1,0.7,0.2,0.9,0.3C1423,267.9,1422.7,267.8,1422.4,267.7z M1431.4,270.4c-0.1,0-0.2-0.1-0.4-0.1c0,0,0,0,0,0
		C1431.8,270.5,1432.9,270.9,1431.4,270.4z"/>
</g>
<g>
	<path class="st0" d="M158.9,123.6c0.4,0,0.9,0,1.2,0.1c0,0,0,0,0,0C159.2,123.3,158.5,123.5,158.9,123.6z"/>
	<path class="st0" d="M175.9,120.8C175.9,120.8,176,120.8,175.9,120.8c0.7-0.3,1.3-0.6,1.9-0.8C177.9,119.9,177.5,120,175.9,120.8z"
		/>
	<path class="st0" d="M166.4,123.3c0.5-0.1,0.9-0.3,1.4-0.4C167.6,122.9,167.1,123.1,166.4,123.3
		C166.4,123.3,166.4,123.3,166.4,123.3z"/>
	<path class="st0" d="M316.6,166.2c0.1-0.3,0.3-0.7,0.4-1C316.9,165.4,316.8,165.7,316.6,166.2C316.6,166.2,316.6,166.2,316.6,166.2
		z"/>
	<path class="st0" d="M260.4,166C260.4,166,260.4,166.1,260.4,166c0,0.5,0,0.8,0,1.2C260.5,167.5,260.6,167.3,260.4,166z"/>
	<path class="st0" d="M207.2,76.8c-0.2-0.2-0.5-0.4-0.7-0.5c0,0,0,0,0,0C207,76.8,207.2,76.9,207.2,76.8z"/>
	<path class="st0" d="M325.9,192.2c10.1-8.9,19.1-19.3,23.2-32.4c3.7-11.9,0-24-8.4-32.9c-14.9-15.8-40.2-18.5-60.1-13
		c-22.2,6.2-40.4,22.4-47.3,44.5c-2.7,8.6-3.4,17.6-2.2,26.3c-1.3-0.8-2.7-1.6-4-2.4c-0.1-0.1-0.3-0.2-0.3-0.2c0,0-0.1,0-0.1-0.1
		c-1-0.7-2.1-1.4-3.1-2.1c-7.5-5.3-14.5-11.3-20.9-17.9c-6.2-6.3-11.7-13.1-17.4-19.7c12.3-5.5,23.6-13.9,32.9-23
		c9.1-9,18.5-20.1,21.7-32.8c3.5-13.8-5.3-25.7-18.1-30.2c-24.3-8.5-51.6,3.9-67.1,23.1c-3.7,4.5-6.7,9.4-9.3,14.5
		c1-10.8-1.4-21.4-9.2-30.4c-12.2-14-33-11.5-48.4-5.1c-13.4,5.6-25.5,15.9-34.8,26.9c-17.1,20.3-26.1,46.2-28.7,72.3
		c-1.7,17.1-1.3,34.3,1.9,51.1c1.7,8.9,4.1,17.2,7.4,25.6c1.6,3.9,3.1,7.9,5.3,11.5c2.5,3.9,5.6,7.2,7.5,11.5c2,4.3,10,0,8.5-4.3
		c-1.2-3.6-1.3-7.2-1.4-11c-0.1-3.4-0.7-6.7-1.2-10.2c-0.9-6.8-1.3-13.6-2-20.4c-0.9-8.7-1.3-17.4-1.1-26.2
		c12.7,0.5,26.5-4.8,36.9-11.2c12.7-7.8,24.4-17,34.1-28.4c5.4-6.3,10.9-14.1,15.5-22.5c-0.6,3.1-1.1,6.2-1.5,9.3c0,0,0,0.1-0.1,0.1
		c-1.1,2.5-1.9,5.5-0.9,8.1c-0.2,2.1-0.4,4.2-0.5,6.3c-0.9,14.3-0.9,28.8,1.2,43c2.1,14.5,6.6,28.5,10.7,42.5
		c0.1,0.2,0.5,0.1,0.4-0.1c-1.4-5.7-2.4-11.3-3.1-17.1c-0.7-5.9-0.5-11.7-0.7-17.6c-0.4-11.7-0.1-23.6,1-35.2c0.5-5,1.2-10,2-14.9
		c1.4,0.3,2.8,0.6,4.2,0.8c0.5,0.3,1,0.5,1.5,0.7c0.1,0,0.1,0.1,0.2,0.1c0.3,0.2,0.7,0.5,1,0.7c1.9,1.4,3.6,3,5.3,4.7
		c0.8,0.9,1.7,1.8,2.4,2.7c0.3,0.4,0.7,0.8,1,1.2c-1.4-1.5,0.1,0.1,0.4,0.5c5.9,8,11.7,16,18.6,23.3c12.7,13.3,27.8,24.9,44.6,32.5
		c9.9,4.5,20.7,7.9,31.6,8.9c6.1,0.6,13.1-1.4,17.5-6C292.1,214.6,311,205.4,325.9,192.2z M108.6,102.5c-1.1,4.6-3,8.7-5.8,13.8
		c-1.2,2.2-2.5,4.3-3.8,6.5c-0.1,0.2-0.2,0.4-0.3,0.6c-0.1,0.2-0.3,0.4-0.5,0.7c-0.9,1.2-1.8,2.4-2.7,3.6c-1.8,2.4-3.8,4.7-5.8,6.9
		c-1,1.1-2.1,2.2-3.1,3.3c-0.1,0.1-0.3,0.3-0.4,0.4c-0.1,0.1-0.3,0.2-0.4,0.4c-4.1,3.6-8.6,8.1-13.4,10.6c-0.6,0.3-1.1,0.6-1.4,0.7
		c-1.3,0.8-2.6,1.4-3.9,2.2c-2.6,1.5-5.2,3-7.8,4.5c-2.8,1.6-5.5,3.1-8.3,4.6c2.7-18.2,8.1-34.7,17.5-50.8c0.5-0.9,1-1.7,1.5-2.5
		c0.2-0.4,0.4-0.7,0.5-0.9c0.1-0.2,0.3-0.4,0.5-0.7c1.4-2,2.9-4,4.4-5.9c1.5-1.9,3.1-3.7,4.8-5.5c0.3-0.3,3.3-3.1,1.6-1.6
		c0.9-0.8,1.8-1.6,2.7-2.4c2.1-1.7,4.3-3.2,6.4-4.9c0,0,0.1-0.1,0.1-0.1c0.1,0,0.1-0.1,0.2-0.1c1.4-0.8,2.8-1.5,4.3-2.3
		c0.2-0.1,0.4-0.2,0.6-0.3c0.9-0.3,1.9-0.6,2.8-0.8c0.3,0,1.5-0.2,2.1-0.3c0.5,0.1,0.9,0.2,1.1,0.2c0.5,0.3,1.3,0.6,1.8,0.8
		c0.6,0.6,1.9,1.6,1.8,1.5c0.4,0.3,0.6,0.5,0.8,0.6c0,0.2,0.2,0.5,0.4,1c0.4,0.8,0.8,1.7,1.3,2.6c0.3,0.5,0.4,0.8,0.5,0.9
		c0,0.2,0,0.5,0.1,1.1c0.2,1.2,0.4,2.4,0.5,3.6C109.8,97,109.4,99.3,108.6,102.5z M195.2,108.1c0,0,0.5-0.5,0.9-0.9
		C195.6,107.7,195.2,108.1,195.2,108.1z M208.2,93.3c0,0,0.1-0.2,0.3-0.4C208.3,93.1,208.2,93.3,208.2,93.3z M209.4,78.8
		c-0.2-0.2-0.3-0.3-0.3-0.3C209.2,78.5,209.3,78.6,209.4,78.8z M181.7,76.2C181.5,76.3,181.5,76.3,181.7,76.2L181.7,76.2z
		 M183.3,117.2c-1.3,0.7-2.6,1.5-4,2.1c-0.5,0.2-1,0.5-1.5,0.7c-0.1,0.1-0.6,0.4-1,0.5c-0.2,0.1-0.5,0.2-0.7,0.2
		c-0.1,0.1-0.3,0.1-0.4,0.2c0.1-0.1,0.2-0.1,0.3-0.2c-0.5,0.2-1.1,0.4-1.6,0.5c-2.1,0.7-4.4,1-6.5,1.5c0.5-0.1-0.2,0.3-1,0.3
		c-0.1,0-0.3,0-0.4,0c-0.2,0.1-0.4,0.1-0.5,0.2c0.2-0.1,0.3-0.1,0.5-0.2c-0.7,0.1-1.4,0.2-2.1,0.2c-1.4,0.1-2.8,0.2-4.1,0.2
		c0,0,0.1,0,0.1,0.1c-0.1,0-0.1-0.1-0.2-0.1c-0.1,0-0.3,0-0.4,0c-0.4,0-0.6,0-0.8-0.1c-0.3,0-0.5,0-0.7,0c-0.4,0-0.8-0.1-1.2-0.1
		c-1.3-0.3-2.5-0.5-3.8-0.6c-1.1-0.1-2.3-0.1-3.5,0c2.3-8.1,5.1-15.9,9.1-23.3c2.3-4.2,4.7-7.8,7.9-11.5c0.8-1,1.7-1.9,2.6-2.8
		c0.1-0.1,0.5-0.5,0.6-0.6c0.2-0.2,0.5-0.4,0.7-0.6c1.9-1.7,3.8-3.3,5.9-4.7c0.5-0.4,1-0.7,1.5-1.1c0,0,0.1,0,0.1,0
		c1-0.4,1.9-1,2.9-1.5c0.5-0.2,1-0.4,1.5-0.6c0,0,0.1,0,0.1,0c1.1-0.4,2.3-0.8,3.5-1.2c1.2-0.4,2.3-0.7,3.5-0.9
		c0.3-0.1,0.7-0.1,1-0.2c0,0,0.1,0,0.1,0c1-0.1,2.1-0.2,3.1-0.3c0.6,0,1.2,0,1.8-0.1c0.1,0,0.2,0,0.2,0c0,0,0,0,0,0
		c1.9,0.2,3.7,0.5,5.6,0.9c0.1,0,1.2,0.3,1.7,0.6c1.1,0.5,2.2,1,3.3,1.6c-0.1,0-0.1-0.1-0.2-0.1c0.1,0.1,0.1,0.1,0.2,0.2
		c0,0,0,0,0,0c0.3,0.2,0.6,0.5,0.7,0.5c0,0,0,0,0.1,0c0.8,0.7,1.5,1.5,2.3,2.2c0,0,0,0,0,0c0.1,0.2,0.3,0.5,0.3,0.6
		c0.3,0.5,0.5,0.9,0.7,1.4c0.1,0.3,0.3,1,0.4,1.3c0.1,0.6,0.1,1.2,0.2,1.8c0,0.5,0.1,1.1,0.1,1.6c0,0.1,0,0.1,0,0.2
		c-0.1,0.3-0.4,1.7-0.6,2.4c-0.1,0.3-0.2,0.6-0.3,0.7c-0.4,0.8-0.7,1.6-1.2,2.3c-0.1,0.1-0.4,0.8-0.7,1.2c-0.7,0.9-1.3,1.8-2,2.7
		c-1.7,2.1-3.4,4.1-5.2,6.1c-0.4,0.4-3.6,3.9-5.2,5.6c-0.1,0.1-0.2,0.1-0.3,0.2c-0.5,0.4-1,0.9-1.5,1.3c-1.1,1-2.2,2-3.4,2.9
		c-2,1.6-4,3.1-6.1,4.6C184.4,116.5,183.8,116.9,183.3,117.2z M296.2,184.3c0.6-0.4,1.2-0.8,1.1-0.7
		C297,183.9,296.6,184.1,296.2,184.3z M319.5,160.9c0,0,0-0.1,0-0.2C319.5,160.8,319.5,160.9,319.5,160.9z M319.7,160.4
		c0,0.1-0.1,0.1-0.1,0.2C319.9,159.9,320.6,158.4,319.7,160.4z M302.6,137c0.1,0,0.1,0,0.2,0.1C302.1,136.8,301.4,136.5,302.6,137z
		 M269,195.2c-0.4-0.6-1-1.5-1.2-1.7c-2.1-3.2-3.8-6.6-5.1-10.2c-0.3-0.7-0.5-1.5-0.7-2.2c-0.1-0.3-0.2-0.7-0.3-1
		c-0.5-2-0.8-4-1.1-6.1c-0.2-1.9-0.3-3.8-0.4-5.7c0-0.3,0-0.7,0-1c0-0.1-0.1-0.4,0-0.7c0-0.1,0-0.3,0-0.4c0-0.1,0-0.2,0-0.3
		c0,0.1,0,0.1,0,0.2c0-0.4,0.1-0.8,0.1-1.1c0.2-1.9,0.5-3.8,1-5.6c0.2-0.9,0.5-1.8,0.8-2.8c0-0.1,0.1-0.3,0.1-0.4
		c0-0.1,0.1-0.2,0.1-0.3c0.7-1.8,1.5-3.5,2.5-5.2c0.3-0.6,0.7-1.1,1-1.7c0.3-0.4,0.5-0.7,0.8-1.1c0.9-1.2,2-2.3,3-3.4
		c0.1-0.1,0.2-0.2,0.4-0.3c0.8-0.7,1.7-1.4,2.5-2c0.6-0.4,1.2-0.8,1.7-1.2c0.1-0.1,0.1-0.1,0.2-0.1c1.7-1,3.5-1.9,5.3-2.7
		c0.7-0.2,1.3-0.5,2-0.7c0.9-0.3,1.8-0.5,2.7-0.8c0.3-0.1,1.8-0.4,2.4-0.5c0.3,0,0.5-0.1,0.7-0.1c0.9-0.1,1.9-0.2,2.8-0.3
		c0.9-0.1,1.9-0.1,2.8-0.1c0.3,0,0.6,0,0.9,0c1.6,0.1,3.2,0.3,4.8,0.6c0.9,0.2,1.9,0.4,2.8,0.6c0.3,0.1,0.7,0.2,1.1,0.3
		c1.7,0.6,3.3,1.3,4.9,2c0.9,0.4,1.8,0.9,2.7,1.4c0.1,0.1,0.3,0.2,0.5,0.3c-0.8-0.5-0.2,0.2,0.5,0.3c-0.1-0.1-0.1-0.1-0.2-0.1
		c0.1,0.1,0.3,0.2,0.4,0.2c-0.1,0-0.1,0-0.2,0c0,0,0,0,0.1,0c1.5,1.1,3,2.4,4.3,3.7c0.1,0.1,0.6,0.6,1,1.1c0.2,0.2,0.5,0.6,0.6,0.8
		c0.3,0.5,0.6,1,0.9,1.4c0.5,0.9,0.9,1.7,1.3,2.7c0.1,0.1,0.2,0.7,0.4,1.1c0.2,0.9,0.4,1.8,0.4,2.7c0,0.5,0,1,0.1,1.4
		c0,0,0,0.1,0,0.1c0,0,0,0,0,0c-0.2,1.1-0.3,2.2-0.6,3.2c0,0.1-0.2,0.7-0.3,1.1c-0.7,1.5-1.8,3-2.5,4.5c0.4-0.6,0.5-0.2-0.1,0.6
		c-0.1,0.1-0.2,0.3-0.3,0.4c0,0.1-0.1,0.2-0.1,0.3c0-0.1,0.1-0.2,0.1-0.2c-0.2,0.3-0.4,0.5-0.6,0.8c-0.7,0.9-1.4,1.8-2.2,2.7
		c-0.7,0.9-1.5,1.7-2.3,2.5c-0.3,0.3-0.5,0.6-0.8,0.8c-3.8,3.4-7.6,6.6-11.7,9.5c-1,0.7-2,1.3-3,2c-0.2,0.1-0.4,0.2-0.6,0.4
		c-2.2,1.3-4.5,2.6-6.8,3.7c-2.3,1.1-4.6,2.3-7,3.3c-0.3,0.1-0.6,0.2-0.8,0.4c-1.2,0.4-2.3,0.8-3.5,1.2c-2.5,0.9-5.1,1.7-7.6,2.5
		C269.4,195.7,269.2,195.4,269,195.2z"/>
	<path class="st0" d="M481.5,177c0,0,0.1,0,0.2,0.1c0.5-0.1,1-0.2,1.5-0.2C482.6,176.9,482.1,176.9,481.5,177z"/>
	<path class="st0" d="M445.7,114.1C445.7,114.2,445.6,114.2,445.7,114.1c-0.5,0.2-0.9,0.4-1.3,0.5C444,115,444.3,115.1,445.7,114.1z
		"/>
	<path class="st0" d="M482.1,118.9C482.1,118.9,482.1,118.8,482.1,118.9c0,0.2,0.1,0.4,0.1,0.5C482.2,119.2,482.1,119,482.1,118.9z"
		/>
	<path class="st0" d="M351.7,251c0.1-0.2,0.2-0.4,0.2-0.7C351.4,251.7,351.5,251.5,351.7,251z"/>
	<path class="st0" d="M430.8,178.6c0.4,0.2,0.6,0.2,0.1-0.1C430.8,178.6,430.8,178.6,430.8,178.6
		C430.7,178.6,430.8,178.6,430.8,178.6z"/>
	<path class="st0" d="M358.5,108.1c4-0.6,7.1-2.7,8.4-6.5c0.5-1.6,0.6-3.2,0.7-4.9c0-0.1,0-0.2,0-0.3c0-0.1,0-0.1,0-0.2
		c0.1-0.9,0.1-1.8,0.1-2.6c0.4-1.5,0.9-3,1.6-4.3c2.9-5-1.8-8.7-6.4-8.5c-7.5,0.2-14.6,7.5-16,14.6c-0.7,3.6-0.2,7,2.4,9.7
		C351.6,107.4,355.1,108.6,358.5,108.1z"/>
	<path class="st0" d="M519.3,212.9c5.4-0.5,10.2-3.9,11.7-9.1c1.2-3.9,2.2-7.9,3.1-11.9c0.2-0.8,0.5-1.5,0.7-2.3
		c6,1.2,12.3,1.6,17.7,2.2c17.8,1.9,35.5,3.7,53.4,4.3c5.2,0.2,11-4.3,12.7-9c1.7-4.6-1.1-9.1-6-9.8c-14-2-28-3.2-42-4.2
		c-7-0.5-14-0.9-21-1.4c-2.2-0.2-5.3-0.5-7.2-0.9c3-6.3,6.5-12.5,10.5-18.7c0.1-0.1,0.1-0.2,0.1-0.2c0,0,0,0,0-0.1
		c0.3-0.5,0.7-1,1-1.5c0.7-1,1.3-1.9,2-2.9c1.5-2,3-4,4.5-6c0.2-0.3,0.5-0.6,0.7-0.9c6.9-5.2,13.8-10.4,20.7-15.6
		c12.7-9.6,25.3-19.4,37.9-29.2c2.9-2.3,5.3-6.8,2.7-10.1c-2.7-3.4-7.7-2.8-11.3-1.1c-21.3,10.1-40.7,24.1-56.8,41.2
		c-3.6,2.7-7.2,5.3-10.7,8c0.6-7.9,0.9-15.8,1-23.8c0.1-5.1,0.4-10.3-0.5-15.4c-1-5.4-1.6-10.7-2.2-16.2c-0.1-1-1.9-0.5-2,0.3
		c-0.3,5.4-0.9,10.6-2,15.9c-1.1,5.2-1.4,10.5-2.1,15.8c-1.3,10.7-3.3,21.4-5.4,31.9c-0.1,0.5-0.2,0.9-0.3,1.4
		c-10,7.8-21.1,18.4-15.5,31.9c1,2.3,2.3,4.3,3.8,6c-3.1,7.7-5.6,15.5-7.6,23.5C509.9,210.1,514.9,213.4,519.3,212.9z"/>
	<path class="st0" d="M797.5,54c-37.9,4.9-76.4,6.1-114.6,5.8c1-1.7,2-3.5,3-5.1c1.2-1.8,1.3-4.9,0.3-6.8c-1.2-2.3-3.4-3.1-5.7-3.8
		c-49-13.9-99.7-6.2-148.7,3.5c-14,2.8-27.9,5.8-42,8.3c-4.4,0.8-9.3,5.4-9.4,9.9c-0.1,4.9,4.1,6.8,8.5,6.8
		c19.3-0.1,38.6,0.4,57.9,1.2c5.5,0.2,8.5,0.3,13.5,0.6c5.1,0.2,10.1,0.5,15.2,0.7c10,0.5,20,1,30,1.4c15.9,0.7,31.8,1.5,47.6,2
		c-1.3,3.4-2.4,6.8-3.4,10.2c-1.2,4.5-1.9,9.2-2.9,13.7c-4.3,20.1-6.7,40.5-7.6,61c-0.2,5.4-0.7,10.9-0.1,16.2
		c0.6,5.4,1.6,10.4,3.1,15.6c0.9,3.2,5.3,1.4,6-1c1.4-4.7,2.8-9.4,3.7-14.2c0.9-4.9,1.6-9.7,2.2-14.7c1.3-10.1,2.8-20.1,4.6-30.1
		c1.8-10,3.9-19.9,6.5-29.7c1.5-5.7,2.9-9.3,4.4-14.1c0-0.1,0.2-0.4,0.2-0.7c0.1-0.3,0.2-0.6,0.3-0.8c0.6-1.6,1.2-3.2,1.7-4.8
		c0.3-1,0.6-1.9,0.9-2.9c0.2-0.5,0.4-1.1,0.6-1.6c0.1-0.2,0.1-0.3,0.2-0.5c0-0.1,0.1-0.2,0.1-0.4c0.1-0.3,0.2-0.5,0.3-0.8
		c17.8,0.4,35.7,0.4,53.5-0.1c22.1-0.6,44.1-2.6,65.9-6c5.4-0.8,12.4-4.1,13.3-10.3C807.6,57.2,802.9,53.3,797.5,54z M661.5,59.5
		c-27.3-0.6-54.6-1.7-81.9-2.6c5.8-0.7,11.7-1.2,17.5-1.6c5.9-0.4,11.9-0.6,17.9-0.7c6.3-0.1,10.8,0.1,16.3,0.5
		C641.4,55.7,651.5,57.2,661.5,59.5C661.5,59.5,661.5,59.5,661.5,59.5z"/>
	<path class="st0" d="M785.5,104.9c-7-3.6-16.9,2.5-18.7,9.5c-1.7,6.9-3.9,12.7-6.5,18.9c-0.8,0.7-1.5,1.4-2.3,2.2
		c-4.8,4.3-9.7,8.5-14.9,12.3c-2.3,1.7-4.7,3.4-7,5c-0.1,0-0.2,0.1-0.3,0.1c-0.6,0.3-1.1,0.7-1.7,1c-1.4,0.8-2.9,1.6-4.4,2.3
		c-0.6,0.3-1.2,0.5-1.8,0.8c-2.1,0.9-0.3,0.2,0.2,0c-1,0.7-3,1-4.1,1.3c-0.6,0.2-1.3,0.3-1.9,0.4c0,0-0.1,0-0.1,0
		c-0.1,0-0.2,0-0.3,0c-0.6,0-1.2,0.1-1.9,0.2c-0.4,0-2,0-1.8,0c-1-0.1-1.9-0.3-2.8-0.5c-0.1,0-0.2,0-0.3-0.1
		c-0.6-0.2-1.2-0.4-1.8-0.7c-1.1-0.4-2.2-1-3.3-1.5c-0.1-0.1-0.2-0.1-0.2-0.1c-0.1,0-0.1-0.1-0.2-0.1c-0.5-0.4-1-0.8-1.5-1.2
		c-0.9-0.8-1.7-1.6-2.5-2.5c-0.3-0.3-1.4-1.9-1.3-1.7c-1.3-2-2.5-4.1-3.4-6.4c-1.5-3.8-2-8.3-2.5-13c-0.6-6.3,0.8-12,3.3-17.7
		c1.4-3.1,2.7-5.8,3.7-9c1-3.4,2.7-6.3,4.5-9.4c1.1-2-2.2-2.1-3.1-0.9c-2.3,2.9-4.5,5.8-7.1,8.5c-1.4,1.5-2.8,2.7-3.9,4.5
		c-1,1.6-2.1,3.2-3,4.9c-3.8,6.5-7.3,13.5-9.6,20.6c-3.7,11.7-0.4,26,7.6,35.1c11.2,13,30.1,10.9,44.4,5.1c3.6-1.5,7.1-3.2,10.5-5.1
		c-8,17.3-16.6,34.3-25.7,51.1c-2.3,4.2-4.5,8.4-7,12.5c-0.4,0.8-0.9,1.5-1.4,2.3c-0.2,0.3-0.4,0.6-0.6,0.8c-1,1.4-2.1,2.8-3.2,4.2
		c-0.1,0.1-0.3,0.3-0.5,0.5c-0.4,0.3-1.1,1-1.4,1.3c0,0,0,0-0.1,0c-0.3,0-0.5,0.1-0.7,0.1c-0.2,0-0.4,0.1-0.4,0.1
		c-0.7-0.1-1.5-0.4-2-0.5c-0.5-0.1-1.1-0.3-1.6-0.4c0,0,0,0-0.1,0c-0.1-0.1-0.3-0.1-0.5-0.2c-18.6-6.7-37.1-13-56.4-17.2
		c-37.5-8.3-76.8-10.8-115-7.1c-37.2,3.6-73.5,13.1-107.8,27.8c-8.1,3.4-16.1,7.2-23.8,11.4c-3.8,2.1-7.6,4.2-11.3,6.4
		c-1.9,1.1-3.7,2.2-5.5,3.4c-1.2,0.7-2.3,1.4-3.5,2.2c-0.4,0.3-0.7,0.5-0.9,0.6c-1.1,0.7-2.2,1.4-3.3,2.1c-1.6,1.1-3.3,2.2-4.9,3.3
		c6.4-10.7,10.3-22.8,12-35.1c1-7.4,1.3-14.8,1-22.3c-0.2-5.5-0.4-11-1-16.5c0.9-0.4,1.9-0.7,2.8-1.1c5.7-2.2,11.4-4.4,17.1-6.6
		c0.8,1.1,1.7,2.1,2.6,3.1c8.3,9.2,21.7,14.3,33.9,15.3c16.2,1.3,34.6-1.9,48.4-10.7c1.1-0.7,2.3-1.4,3.4-2.2
		c0.2-0.2,0.4-0.3,0.5-0.4c1.8-1.1,3.6-2.4,5.3-3.7c2.7-2,5.5-3.9,8.3-5.9c3-2.1,5.4-6.7,3.6-10.2c-1.8-3.6-6.9-4.2-10.4-3.1
		c-3.1,0.9-6.2,1.9-9.4,2.7c-0.7,0.2-3.5,1.3-4.3,1.1c-0.9,0.1-1.8,0.3-2.7,0.5c-1.2,0.2-2.4,0.5-3.5,0.7c-3.1,0.6-6,1.9-9.1,2.8
		c-3.4,1-6.9,1.5-10.3,2.5c4.2-1.2-0.4,0-1.6,0.1c-1.3,0.1-2.6,0.2-3.9,0.2c-0.6,0-1.3,0-1.9,0c-1.3-0.1-2.6-0.2-3.8-0.4
		c-1.4-0.2-2.9-0.5-4.3-0.8c-0.5-0.1-1-0.2-1.5-0.4c-2.7-1-5.4-2-7.9-3.5c-0.1-0.1-0.3-0.2-0.4-0.3c0,0,0,0,0,0c0,0,0,0,0,0
		c-0.1-0.1-0.3-0.2-0.4-0.3c0,0,0,0,0,0c-0.1,0-0.1-0.1-0.2-0.1c0.3,0.2,0.6,0.3,0.7,0.4c14.9-6.3,29.5-13.1,43.4-21.4
		c12.6-7.5,28.1-16.1,33.7-30.5c2.9-7.5,3.8-16.7-1.1-23.7c-4.4-6.3-10.7-9.7-17.9-11.8c-29.2-8.6-61.8,3.1-81.1,26.2
		c-12.2,14.7-19.8,36-16.2,55c-5.2,2.1-10.3,4.2-15.5,6.3c-0.5-2.3-1.1-4.5-1.8-6.7c-2.1-7-4.6-14-6.8-21c-1-3.2-1.8-6.5-3.2-9.6
		c-1.7-3.7-2.7-7.5-3.7-11.4c-0.6-2.2-4.4-0.9-4.1,1.1c0.6,3.9,1.3,7.6,1.3,11.6c0.1,4,0.5,7.8,0.9,11.8c0.6,7.9,0.6,15.8,0.8,23.7
		c0.1,2.5,0.1,5,0.2,7.5c-19.1,8.4-37.7,17.6-55.3,29c-21.4,13.8-47.5,34.6-38.5,63.4c3.6,11.5,12.8,21.1,23.7,26
		c11.5,5.2,25,5.1,36.9,1.5c-1.5,1.4-3,2.8-4.4,4.2c-2.7,2.6-5.5,7.1-2,10.3c3.2,3,9.2,1.6,12.2-1c6.7-5.8,13.6-11.3,20.7-16.5
		c3.6-2.7,7.3-5.3,11-7.8c0.8-0.6,1.7-1.1,2.5-1.7c0.3-0.2,1.3-0.8,1.5-1c1.8-1.1,3.6-2.2,5.4-3.3c15.1-9.1,30.7-17.2,46.7-24.4
		c4.1-1.9,8.2-3.6,12.4-5.3c0.9-0.4,1.9-0.7,2.8-1.1c1.4-0.6-0.8,0.3-0.9,0.3c0.5-0.3,1.3-0.5,1.9-0.7c2-0.8,4-1.5,6.1-2.3
		c8.3-3,16.7-5.7,25.1-8c8.6-2.4,17.4-4.5,26.2-6.2c1.7-0.3,3.5-0.7,5.2-1c0.5-0.1,1.8-0.3,2.3-0.4c1.2-0.2,2.5-0.4,3.7-0.6
		c4.8-0.7,9.6-1.3,14.4-1.8c9.5-1,19-1.6,28.5-1.8c4.7-0.1,9.4-0.1,14,0c2.3,0,4.7,0.1,7,0.2c0.4,0,0.8,0,1.2,0.1
		c1.4,0.1,2.9,0.2,4.3,0.2c19,1.2,37.9,4,56.4,8.4c4.7,1.1,9.4,2.3,14.1,3.7c0.5,0.1,1.8,0.5,1.9,0.5c0.8,0.2,1.6,0.5,2.4,0.7
		c2.4,0.7,4.8,1.5,7.2,2.3c9.1,3,17.8,6.8,26.8,10c6,2.1,12.3,3.7,18.7,3c6.9-0.7,12.9-3.4,18.6-7.1c8-5.2,13.6-13.5,18.3-21.6
		c17.5-30.4,30.5-62.7,41.8-95.8c4-3.9,7.6-8.1,10-13C794.3,118.9,794.4,109.5,785.5,104.9z M714.9,158.4
		C713.5,158.2,714.5,158.3,714.9,158.4L714.9,158.4z M478.5,128.5c0.2-0.2,0.4-0.4,0.6-0.5C478.9,128.3,478.6,128.5,478.5,128.5z
		 M474.5,113.2c-0.2-0.1-0.5-0.1-0.9-0.2C473.8,112.9,474.2,113,474.5,113.2z M463.9,111.3c-0.5,0-0.8,0-1.1-0.1
		C463.3,111.3,463.8,111.3,463.9,111.3z M418.2,152.9c0.1-1.4,0.3-2.8,0.5-4.3c0.2-1.4,0.5-2.8,0.9-4.2c0.2-0.7,0.4-1.5,0.6-2.2
		c0.1-0.2,0.3-0.9,0.4-1.5c0.7-2.4,2-4.8,3.2-7c0.6-1.2,1.4-2.4,2.1-3.6c0,0,0,0,0-0.1c0.5-0.7,1-1.4,1.5-2.1
		c0.9-1.2,1.9-2.4,2.9-3.5c0.4-0.5,0.8-0.9,1.2-1.3c1.7-1.8-0.5,0.3-0.6,0.5c0.5-1,2.5-2.3,3.4-3c1.2-1,2.4-1.8,3.7-2.7
		c0,0,0.1-0.1,0.1-0.1c0.5-0.3,0.9-0.6,1.4-0.8c1.4-0.8,2.9-1.6,4.4-2.2c0.1,0,0.2-0.1,0.3-0.1c0.1-0.1,0.4-0.2,0.7-0.3
		c0.2-0.1,0.3-0.1,0.5-0.2c0.1,0,0.2-0.1,0.3-0.1c-0.1,0-0.1,0.1-0.2,0.1c1.7-0.6,3.3-1.1,5.1-1.5c1-0.2,2.1-0.6,3.1-0.8
		c0.4,0,0.9,0,1.1,0c0.7-0.1,1.3-0.1,2-0.2c1.6-0.1,3.3-0.2,4.9-0.2c0.1,0,0.5,0,0.8,0c0.1,0,0.2,0,0.3,0c0.5,0,1,0.1,1.5,0.1
		c3,0.3,5.9,0.7,8.8,1.4c0.3,0.1,0.6,0.2,1,0.2c0.2,0,0.3,0.1,0.4,0.1c0.3,0.1,0.6,0.2,0.7,0.3c1.4,0.5,2.6,1.2,3.9,1.8
		c0,0,0.1,0,0.1,0.1c0.1,0.1,0.1,0.1,0.2,0.2c0.4,0.4,0.9,0.8,1.3,1.1c0.2,0.2,0.3,0.3,0.4,0.4c0.3,0.5,0.5,1.1,0.8,1.5
		c0,0.1,0.1,0.2,0.1,0.2c0-0.1,0-0.2-0.1-0.4c0,0.2,0.1,0.3,0.1,0.4c0.2,0.4,0.2,0.9,0.1,0.5c0.1,0.3,0.1,0.6,0.1,0.9
		c0,0.4-0.1,1.7-0.1,1.8c-0.1,0.6-0.2,1.1-0.3,1.7c0,0.1,0,0.2,0,0.3c-0.2,0.4-0.5,1-0.6,1.2c0,0.1-0.1,0.2-0.1,0.3c0,0,0,0-0.1,0.1
		c-0.4,0.5-0.8,1-1.2,1.5c0,0-0.3,0.4-0.6,0.7c-0.3,0.3-0.6,0.6-0.9,0.8c-1.3,1.1-2.6,2.1-3.9,3.1c-0.7,0.5-6.9,5.3-7.3,5
		c0.5-0.4,1.1-0.7,1.6-1.1c-0.6,0.3-1.1,0.7-1.7,1c-0.6,0.3-1.1,0.7-1.7,1c-1.5,0.9-3.1,1.9-4.6,2.8c-5.5,3.2-11.1,6.2-16.8,9.1
		c-8.2,4.1-16.6,7.9-25.1,11.5c0-0.2-0.1-0.4-0.1-0.6c-0.3-1.5-0.5-3.1-0.5-4.7C418.2,154.8,418.2,153.9,418.2,152.9
		C418.2,153,418.2,153,418.2,152.9z M418.2,153.1C418.2,153.6,418.1,154.8,418.2,153.1L418.2,153.1z M288.7,259.1
		C288.6,258.3,288.7,258.7,288.7,259.1L288.7,259.1z M289.5,266.2C289.7,266.7,289.8,267.5,289.5,266.2L289.5,266.2z M318.8,285.3
		c0.5-0.1,1.2-0.3,1.2-0.2C319.9,285.1,319.4,285.2,318.8,285.3z M358.1,222.5c-1.1,7-2.3,14.2-4.2,21c-0.4,1.5-0.8,2.9-1.3,4.4
		c-0.2,0.8-0.5,1.6-0.8,2.4c0,0.1-0.2,0.4-0.2,0.7c-0.2,0.6-0.4,1.2-0.6,1.8c-0.3,0.7-0.6,1.5-0.9,2.2c-0.6,1.5-1.3,3.1-2,4.6
		c-1.4,2.9-2.8,6-4.7,8.6c-0.5,0.7-1.2,1.5-1.4,1.8c-1.1,1.4-2.3,2.8-3.5,4.1c-0.5,0.6-1,1.1-1.6,1.7c-0.5,0.5-0.7,0.7-0.7,0.8
		c-0.8,0.7-1.9,1.4-2.1,1.6c-1,0.8-2,1.5-3,2.2c-0.9,0.5-1.8,1-2.7,1.5c-1.1,0.5-2.1,1-3.2,1.5c-0.6,0.2-1.1,0.4-1.7,0.6
		c-1.5,0.4-2.9,0.8-4.4,1.1c-0.2,0-0.3,0.1-0.5,0.1c-0.8,0.1-1.7,0.1-1.9,0.1c-1,0.1-2.8-0.2-3.9,0c-0.1,0-0.1,0-0.2,0
		c-0.8-0.1-1.5-0.2-2.3-0.3c-0.6-0.1-1.2-0.2-1.7-0.3c-0.2,0-1.9-0.6-1.6-0.5c-0.2-0.1-0.4-0.2-0.4-0.2c-0.8-0.3-1.6-0.7-2.3-1
		c-1-0.5-2-1-3-1.6c0.2,0.1-1.8-1.3-2.2-1.7c-1-0.8-1.9-1.7-2.8-2.6c-0.6-0.6-1.2-1.2-1.7-1.9c-0.2-0.2-0.8-1.1-1-1.3
		c-1.2-1.8-2.3-3.7-3.2-5.8c-0.3-0.7-0.6-1.4-0.8-2.2c0,0,0,0,0,0c-0.3-1.5-0.6-2.9-0.7-4.5c-0.1-0.7-0.1-1.4-0.1-2.1c0,0,0,0,0-0.1
		c0.2-1.4,0.4-2.7,0.7-4.1c0.1-0.3,0.2-0.6,0.2-0.9c-0.1,0.5,0.5-1.3,0.6-1.6c0.6-1.4,1.4-2.7,2.1-4c0,0,0,0,0-0.1
		c0,0,0.1-0.1,0.1-0.1c0.5-0.6,0.9-1.2,1.4-1.8c1-1.2,2-2.4,3-3.5c0.2-0.2,0.4-0.5,0.7-0.8c0.1-0.1,0.2-0.2,0.4-0.3
		c1.4-1.2,2.8-2.5,4.3-3.7c2.2-1.8,4.6-3.5,6.9-5.1c1.3-0.9,2.7-1.9,4-2.8c0.5-0.4,1.1-0.7,1.6-1.1c0.3-0.2,0.6-0.4,0.8-0.5
		c5.4-3.3,10.9-6.5,16.5-9.5c8.9-4.7,18.1-8.9,27.4-12.9C359.3,212.1,358.9,217.3,358.1,222.5z M705,241
		C705,240.9,705,240.9,705,241C705,240.9,705,240.9,705,241C705,240.9,705,240.9,705,241z M705.2,241C705.2,241,705.2,241,705.2,241
		c0,0-0.1,0-0.1,0C705.1,241,705.1,240.9,705.2,241C705.2,240.9,705.2,240.9,705.2,241C705.2,240.9,705.2,241,705.2,241z"/>
	<path class="st0" d="M376.2,267.1c0.2-0.1,0.4-0.3,0.6-0.4C376.2,267.1,374.8,268,376.2,267.1z"/>
</g>
</svg>
